Compagnon-Roman.ufo
<glyph name="quotedbl" format="2">
	<advance width="600"/>
	<unicode hex="0022"/>
	<note>
		quotedbl
	</note>
	<outline>
		<contour>
			<point x="133" y="399" type="curve" smooth="yes"/>
			<point x="183" y="399"/>
			<point x="212" y="437"/>
			<point x="212" y="478" type="curve" smooth="yes"/>
			<point x="212" y="500"/>
			<point x="205" y="521"/>
			<point x="196" y="531" type="curve"/>
			<point x="216" y="521"/>
			<point x="237" y="492"/>
			<point x="237" y="442" type="curve" smooth="yes"/>
			<point x="237" y="355"/>
			<point x="172" y="301"/>
			<point x="86" y="292" type="curve"/>
			<point x="100" y="243" type="line"/>
			<point x="186" y="252"/>
			<point x="284" y="321"/>
			<point x="284" y="442" type="curve" smooth="yes"/>
			<point x="284" y="542"/>
			<point x="219" y="602"/>
			<point x="148" y="602" type="curve" smooth="yes"/>
			<point x="92" y="602"/>
			<point x="35" y="565"/>
			<point x="35" y="500" type="curve" smooth="yes"/>
			<point x="35" y="442"/>
			<point x="77" y="399"/>
		</contour>
		<contour>
			<point x="408" y="399" type="curve" smooth="yes"/>
			<point x="458" y="399"/>
			<point x="487" y="437"/>
			<point x="487" y="478" type="curve" smooth="yes"/>
			<point x="487" y="500"/>
			<point x="480" y="521"/>
			<point x="471" y="531" type="curve"/>
			<point x="491" y="521"/>
			<point x="512" y="492"/>
			<point x="512" y="442" type="curve" smooth="yes"/>
			<point x="512" y="355"/>
			<point x="447" y="301"/>
			<point x="361" y="292" type="curve"/>
			<point x="375" y="243" type="line"/>
			<point x="461" y="252"/>
			<point x="559" y="321"/>
			<point x="559" y="442" type="curve" smooth="yes"/>
			<point x="559" y="542"/>
			<point x="494" y="602"/>
			<point x="423" y="602" type="curve" smooth="yes"/>
			<point x="367" y="602"/>
			<point x="310" y="565"/>
			<point x="310" y="500" type="curve" smooth="yes"/>
			<point x="310" y="442"/>
			<point x="352" y="399"/>
		</contour>
	</outline>
</glyph>
<glyph name="ampersand" format="2">
	<advance width="600"/>
	<unicode hex="0026"/>
	<note>
		ampersand
	</note>
	<outline>
		<contour>
			<point x="591" y="109" type="curve"/>
			<point x="545" y="128" type="line"/>
			<point x="536" y="98"/>
			<point x="525" y="37"/>
			<point x="489" y="37" type="curve" smooth="yes"/>
			<point x="467" y="37"/>
			<point x="411" y="111"/>
			<point x="392" y="134" type="curve" smooth="yes"/>
			<point x="380" y="149" type="line"/>
			<point x="424" y="225"/>
			<point x="457" y="298"/>
			<point x="486" y="298" type="curve" smooth="yes"/>
			<point x="506" y="298"/>
			<point x="523" y="291"/>
			<point x="528" y="269" type="curve"/>
			<point x="511" y="269"/>
			<point x="498" y="254"/>
			<point x="498" y="238" type="curve" smooth="yes"/>
			<point x="498" y="218"/>
			<point x="517" y="201"/>
			<point x="537" y="201" type="curve" smooth="yes"/>
			<point x="560" y="201"/>
			<point x="578" y="220"/>
			<point x="578" y="246" type="curve" smooth="yes"/>
			<point x="578" y="309"/>
			<point x="537" y="348"/>
			<point x="483" y="348" type="curve" smooth="yes"/>
			<point x="431" y="348"/>
			<point x="389" y="270"/>
			<point x="344" y="193" type="curve"/>
			<point x="213" y="352" type="line"/>
			<point x="256" y="391"/>
			<point x="292" y="433"/>
			<point x="292" y="487" type="curve" smooth="yes"/>
			<point x="292" y="560"/>
			<point x="245" y="603"/>
			<point x="179" y="603" type="curve" smooth="yes"/>
			<point x="116" y="603"/>
			<point x="66" y="558"/>
			<point x="66" y="487" type="curve" smooth="yes"/>
			<point x="66" y="437"/>
			<point x="106" y="394"/>
			<point x="139" y="360" type="curve"/>
			<point x="80" y="312"/>
			<point x="17" y="256"/>
			<point x="17" y="165" type="curve" smooth="yes"/>
			<point x="17" y="76"/>
			<point x="75" y="-12"/>
			<point x="188" y="-13" type="curve" smooth="yes"/>
			<point x="256" y="-13"/>
			<point x="309" y="41"/>
			<point x="352" y="105" type="curve"/>
			<point x="384" y="66"/>
			<point x="437" y="-13"/>
			<point x="489" y="-13" type="curve" smooth="yes"/>
			<point x="559" y="-13"/>
			<point x="570" y="51"/>
		</contour>
		<contour>
			<point x="116" y="487" type="curve" smooth="yes"/>
			<point x="116" y="528"/>
			<point x="145" y="553"/>
			<point x="179" y="553" type="curve" smooth="yes"/>
			<point x="214" y="553"/>
			<point x="242" y="530"/>
			<point x="242" y="487" type="curve" smooth="yes"/>
			<point x="242" y="451"/>
			<point x="214" y="422"/>
			<point x="178" y="391" type="curve"/>
			<point x="150" y="420"/>
			<point x="116" y="454"/>
		</contour>
		<contour>
			<point x="188" y="37" type="curve" smooth="yes"/>
			<point x="117" y="37"/>
			<point x="67" y="87"/>
			<point x="67" y="165" type="curve" smooth="yes"/>
			<point x="67" y="227"/>
			<point x="120" y="273"/>
			<point x="174" y="319" type="curve"/>
			<point x="317" y="147" type="line"/>
			<point x="280" y="87"/>
			<point x="239" y="37"/>
		</contour>
	</outline>
</glyph>
<glyph name="slash" format="2">
	<advance width="600"/>
	<unicode hex="002F"/>
	<note>
		slash
	</note>
	<outline>
		<contour>
			<point x="108" y="-15" type="line"/>
			<point x="527" y="573" type="line"/>
			<point x="489" y="603" type="line"/>
			<point x="70" y="15" type="line"/>
		</contour>
	</outline>
</glyph>
<glyph name="zero" format="2">
	<advance width="600"/>
	<unicode hex="0030"/>
	<note>
		zero
	</note>
	<outline>
		<contour>
			<point x="300" y="-13" type="curve" smooth="yes"/>
			<point x="425" y="-13"/>
			<point x="537" y="89"/>
			<point x="537" y="295" type="curve" smooth="yes"/>
			<point x="537" y="501"/>
			<point x="425" y="603"/>
			<point x="300" y="603" type="curve" smooth="yes"/>
			<point x="174" y="603"/>
			<point x="62" y="501"/>
			<point x="62" y="295" type="curve" smooth="yes"/>
			<point x="62" y="89"/>
			<point x="174" y="-13"/>
		</contour>
		<contour>
			<point x="299" y="37" type="curve" smooth="yes"/>
			<point x="201" y="37"/>
			<point x="112" y="117"/>
			<point x="112" y="295" type="curve" smooth="yes"/>
			<point x="112" y="473"/>
			<point x="201" y="553"/>
			<point x="300" y="553" type="curve" smooth="yes"/>
			<point x="397" y="553"/>
			<point x="488" y="473"/>
			<point x="487" y="295" type="curve" smooth="yes"/>
			<point x="486" y="117"/>
			<point x="397" y="37"/>
		</contour>
	</outline>
</glyph>
<glyph name="one" format="2">
	<advance width="600"/>
	<unicode hex="0031"/>
	<note>
		one
	</note>
	<outline>
		<contour>
			<point x="362" y="50" type="line"/>
			<point x="362" y="590" type="line"/>
			<point x="292" y="590" type="line"/>
			<point x="261" y="483"/>
			<point x="190" y="378"/>
			<point x="65" y="317" type="curve"/>
			<point x="93" y="279" type="line"/>
			<point x="237" y="357"/>
			<point x="283" y="432"/>
			<point x="312" y="524" type="curve"/>
			<point x="312" y="50" type="line"/>
			<point x="75" y="50" type="line"/>
			<point x="75" y="0" type="line"/>
			<point x="540" y="0" type="line"/>
			<point x="540" y="50" type="line"/>
		</contour>
	</outline>
</glyph>
<glyph name="four" format="2">
	<advance width="600"/>
	<unicode hex="0034"/>
	<note>
		four
	</note>
	<outline>
		<contour>
			<point x="353" y="119" type="line"/>
			<point x="35" y="119" type="line"/>
			<point x="35" y="169" type="line"/>
			<point x="155" y="325"/>
			<point x="219" y="446"/>
			<point x="265" y="603" type="curve"/>
			<point x="314" y="594" type="line"/>
			<point x="278" y="453"/>
			<point x="212" y="321"/>
			<point x="98" y="169" type="curve"/>
			<point x="353" y="169" type="line"/>
			<point x="355" y="426" type="line"/>
			<point x="405" y="426" type="line"/>
			<point x="403" y="169" type="line"/>
			<point x="559" y="169" type="line"/>
			<point x="559" y="119" type="line"/>
			<point x="403" y="119" type="line"/>
			<point x="402" y="0" type="line"/>
			<point x="352" y="0" type="line"/>
		</contour>
	</outline>
</glyph>
<glyph name="five" format="2">
	<advance width="600"/>
	<unicode hex="0035"/>
	<note>
		five
	</note>
	<outline>
		<contour>
			<point x="481" y="189" type="curve" smooth="yes"/>
			<point x="481" y="289"/>
			<point x="392" y="335"/>
			<point x="316" y="335" type="curve" smooth="yes"/>
			<point x="236" y="335"/>
			<point x="190" y="308"/>
			<point x="149" y="283" type="curve"/>
			<point x="107" y="305" type="line"/>
			<point x="149" y="590" type="line"/>
			<point x="499" y="590" type="line"/>
			<point x="499" y="540" type="line"/>
			<point x="192" y="540" type="line"/>
			<point x="163" y="342" type="line"/>
			<point x="200" y="362"/>
			<point x="239" y="385"/>
			<point x="325" y="385" type="curve" smooth="yes"/>
			<point x="434" y="385"/>
			<point x="531" y="306"/>
			<point x="531" y="189" type="curve" smooth="yes"/>
			<point x="531" y="57"/>
			<point x="419" y="-13"/>
			<point x="308" y="-13" type="curve" smooth="yes"/>
			<point x="187" y="-13"/>
			<point x="91" y="54"/>
			<point x="91" y="159" type="curve" smooth="yes"/>
			<point x="91" y="205"/>
			<point x="124" y="225"/>
			<point x="149" y="225" type="curve" smooth="yes"/>
			<point x="179" y="225"/>
			<point x="204" y="202"/>
			<point x="204" y="174" type="curve" smooth="yes"/>
			<point x="204" y="145"/>
			<point x="176" y="117"/>
			<point x="147" y="137" type="curve"/>
			<point x="147" y="97"/>
			<point x="205" y="37"/>
			<point x="309" y="37" type="curve" smooth="yes"/>
			<point x="402" y="37"/>
			<point x="481" y="94"/>
		</contour>
	</outline>
</glyph>
<glyph name="six" format="2">
	<advance width="600"/>
	<unicode hex="0036"/>
	<note>
		six
	</note>
	<outline>
		<contour>
			<point x="313" y="371" type="curve" smooth="yes"/>
			<point x="238" y="371"/>
			<point x="170" y="337"/>
			<point x="119" y="275" type="curve"/>
			<point x="118" y="282"/>
			<point x="118" y="290"/>
			<point x="118" y="297" type="curve" smooth="yes"/>
			<point x="119" y="424"/>
			<point x="193" y="553"/>
			<point x="330" y="553" type="curve" smooth="yes"/>
			<point x="418" y="553"/>
			<point x="447" y="513"/>
			<point x="453" y="483" type="curve"/>
			<point x="433" y="499"/>
			<point x="392" y="482"/>
			<point x="392" y="445" type="curve" smooth="yes"/>
			<point x="392" y="413"/>
			<point x="416" y="396"/>
			<point x="444" y="396" type="curve" smooth="yes"/>
			<point x="480" y="396"/>
			<point x="505" y="428"/>
			<point x="505" y="467" type="curve" smooth="yes"/>
			<point x="505" y="538"/>
			<point x="448" y="603"/>
			<point x="330" y="603" type="curve" smooth="yes"/>
			<point x="183" y="603"/>
			<point x="68" y="486"/>
			<point x="68" y="272" type="curve" smooth="yes"/>
			<point x="68" y="104"/>
			<point x="152" y="-13"/>
			<point x="302" y="-13" type="curve" smooth="yes"/>
			<point x="424" y="-13"/>
			<point x="521" y="68"/>
			<point x="521" y="185" type="curve" smooth="yes"/>
			<point x="521" y="303"/>
			<point x="432" y="371"/>
		</contour>
		<contour>
			<point x="302" y="37" type="curve" smooth="yes"/>
			<point x="220" y="37"/>
			<point x="149" y="88"/>
			<point x="126" y="210" type="curve"/>
			<point x="174" y="283"/>
			<point x="242" y="321"/>
			<point x="313" y="321" type="curve" smooth="yes"/>
			<point x="401" y="321"/>
			<point x="471" y="272"/>
			<point x="471" y="186" type="curve" smooth="yes"/>
			<point x="471" y="95"/>
			<point x="393" y="37"/>
		</contour>
	</outline>
</glyph>
<glyph name="seven" format="2">
	<advance width="600"/>
	<unicode hex="0037"/>
	<note>
		seven
	</note>
	<outline>
		<contour>
			<point x="119" y="595" type="line"/>
			<point x="71" y="590" type="line"/>
			<point x="89" y="382" type="line"/>
			<point x="137" y="387" type="line"/>
			<point x="133" y="429" type="line"/>
			<point x="151" y="508"/>
			<point x="183" y="551"/>
			<point x="225" y="551" type="curve" smooth="yes"/>
			<point x="284" y="551"/>
			<point x="333" y="510"/>
			<point x="407" y="510" type="curve" smooth="yes"/>
			<point x="429" y="510"/>
			<point x="455" y="513"/>
			<point x="475" y="520" type="curve"/>
			<point x="423" y="382"/>
			<point x="255" y="312"/>
			<point x="255" y="118" type="curve" smooth="yes"/>
			<point x="255" y="0" type="line"/>
			<point x="305" y="0" type="line"/>
			<point x="305" y="117" type="line" smooth="yes"/>
			<point x="305" y="284"/>
			<point x="465" y="359"/>
			<point x="525" y="513" type="curve" smooth="yes"/>
			<point x="549" y="575" type="line"/>
			<point x="502" y="595" type="line"/>
			<point x="484" y="574"/>
			<point x="442" y="561"/>
			<point x="407" y="561" type="curve" smooth="yes"/>
			<point x="345" y="561"/>
			<point x="300" y="601"/>
			<point x="225" y="601" type="curve" smooth="yes"/>
			<point x="186" y="601"/>
			<point x="145" y="582"/>
			<point x="125" y="521" type="curve"/>
		</contour>
	</outline>
</glyph>
<glyph name="nine" format="2">
	<advance width="600"/>
	<unicode hex="0039"/>
	<note>
		nine
	</note>
	<outline>
		<contour>
			<point x="290" y="602" type="curve" smooth="yes"/>
			<point x="168" y="602"/>
			<point x="71" y="521"/>
			<point x="71" y="404" type="curve" smooth="yes"/>
			<point x="71" y="286"/>
			<point x="160" y="218"/>
			<point x="279" y="218" type="curve" smooth="yes"/>
			<point x="354" y="218"/>
			<point x="422" y="252"/>
			<point x="473" y="314" type="curve"/>
			<point x="474" y="307"/>
			<point x="474" y="299"/>
			<point x="474" y="292" type="curve" smooth="yes"/>
			<point x="473" y="165"/>
			<point x="399" y="36"/>
			<point x="262" y="36" type="curve" smooth="yes"/>
			<point x="174" y="36"/>
			<point x="145" y="76"/>
			<point x="139" y="106" type="curve"/>
			<point x="159" y="90"/>
			<point x="200" y="107"/>
			<point x="200" y="144" type="curve" smooth="yes"/>
			<point x="200" y="176"/>
			<point x="176" y="193"/>
			<point x="148" y="193" type="curve" smooth="yes"/>
			<point x="112" y="193"/>
			<point x="87" y="161"/>
			<point x="87" y="122" type="curve" smooth="yes"/>
			<point x="87" y="51"/>
			<point x="144" y="-14"/>
			<point x="262" y="-14" type="curve" smooth="yes"/>
			<point x="409" y="-14"/>
			<point x="524" y="103"/>
			<point x="524" y="317" type="curve" smooth="yes"/>
			<point x="524" y="485"/>
			<point x="440" y="602"/>
		</contour>
		<contour>
			<point x="279" y="268" type="curve" smooth="yes"/>
			<point x="191" y="268"/>
			<point x="121" y="317"/>
			<point x="121" y="403" type="curve" smooth="yes"/>
			<point x="121" y="494"/>
			<point x="199" y="552"/>
			<point x="290" y="552" type="curve" smooth="yes"/>
			<point x="372" y="552"/>
			<point x="443" y="501"/>
			<point x="466" y="379" type="curve"/>
			<point x="418" y="306"/>
			<point x="350" y="268"/>
		</contour>
	</outline>
</glyph>
<glyph name="colon" format="2">
	<advance width="600"/>
	<unicode hex="003A"/>
	<note>
		colon
	</note>
	<outline>
		<contour>
			<point x="302" y="310" type="curve" smooth="yes"/>
			<point x="339" y="310"/>
			<point x="367" y="341"/>
			<point x="367" y="376" type="curve" smooth="yes"/>
			<point x="367" y="412"/>
			<point x="339" y="443"/>
			<point x="302" y="443" type="curve" smooth="yes"/>
			<point x="265" y="443"/>
			<point x="234" y="412"/>
			<point x="234" y="376" type="curve" smooth="yes"/>
			<point x="234" y="341"/>
			<point x="265" y="310"/>
		</contour>
		<contour>
			<point x="302" y="-13" type="curve" smooth="yes"/>
			<point x="339" y="-13"/>
			<point x="367" y="18"/>
			<point x="367" y="53" type="curve" smooth="yes"/>
			<point x="367" y="89"/>
			<point x="339" y="120"/>
			<point x="302" y="120" type="curve" smooth="yes"/>
			<point x="265" y="120"/>
			<point x="234" y="89"/>
			<point x="234" y="53" type="curve" smooth="yes"/>
			<point x="234" y="18"/>
			<point x="265" y="-13"/>
		</contour>
	</outline>
</glyph>
<glyph name="semicolon" format="2">
	<advance width="600"/>
	<unicode hex="003B"/>
	<note>
		semicolon
	</note>
	<outline>
		<contour>
			<point x="262" y="310" type="curve" smooth="yes"/>
			<point x="299" y="310"/>
			<point x="327" y="341"/>
			<point x="327" y="376" type="curve" smooth="yes"/>
			<point x="327" y="412"/>
			<point x="299" y="443"/>
			<point x="262" y="443" type="curve" smooth="yes"/>
			<point x="225" y="443"/>
			<point x="194" y="412"/>
			<point x="194" y="376" type="curve" smooth="yes"/>
			<point x="194" y="341"/>
			<point x="225" y="310"/>
		</contour>
		<contour>
			<point x="259" y="-13" type="curve" smooth="yes"/>
			<point x="293" y="-13"/>
			<point x="312" y="13"/>
			<point x="312" y="40" type="curve" smooth="yes"/>
			<point x="312" y="55"/>
			<point x="308" y="69"/>
			<point x="302" y="76" type="curve"/>
			<point x="315" y="69"/>
			<point x="329" y="50"/>
			<point x="329" y="16" type="curve" smooth="yes"/>
			<point x="329" y="-43"/>
			<point x="285" y="-80"/>
			<point x="227" y="-86" type="curve"/>
			<point x="237" y="-119" type="line"/>
			<point x="295" y="-113"/>
			<point x="361" y="-66"/>
			<point x="361" y="16" type="curve" smooth="yes"/>
			<point x="361" y="84"/>
			<point x="317" y="124"/>
			<point x="269" y="124" type="curve" smooth="yes"/>
			<point x="231" y="124"/>
			<point x="193" y="99"/>
			<point x="193" y="55" type="curve" smooth="yes"/>
			<point x="193" y="16"/>
			<point x="221" y="-13"/>
		</contour>
	</outline>
</glyph>
<glyph name="question" format="2">
	<advance width="600"/>
	<unicode hex="003F"/>
	<note>
		question
	</note>
	<outline>
		<contour>
			<point x="506" y="446" type="curve" smooth="yes"/>
			<point x="507" y="561"/>
			<point x="393" y="603"/>
			<point x="300" y="603" type="curve" smooth="yes"/>
			<point x="180" y="603"/>
			<point x="84" y="542"/>
			<point x="84" y="453" type="curve" smooth="yes"/>
			<point x="84" y="416"/>
			<point x="116" y="392"/>
			<point x="141" y="392" type="curve" smooth="yes"/>
			<point x="167" y="392"/>
			<point x="187" y="412"/>
			<point x="187" y="438" type="curve" smooth="yes"/>
			<point x="187" y="457"/>
			<point x="172" y="479"/>
			<point x="150" y="479" type="curve" smooth="yes"/>
			<point x="145" y="479"/>
			<point x="141" y="478"/>
			<point x="136" y="475" type="curve"/>
			<point x="143" y="501"/>
			<point x="195" y="553"/>
			<point x="300" y="553" type="curve" smooth="yes"/>
			<point x="370" y="553"/>
			<point x="456" y="520"/>
			<point x="456" y="446" type="curve" smooth="yes"/>
			<point x="456" y="395"/>
			<point x="426" y="372"/>
			<point x="365" y="341" type="curve" smooth="yes"/>
			<point x="312" y="314" type="line" smooth="yes"/>
			<point x="236" y="275"/>
			<point x="207" y="245"/>
			<point x="207" y="208" type="curve" smooth="yes"/>
			<point x="207" y="171"/>
			<point x="233" y="134"/>
			<point x="283" y="134" type="curve" smooth="yes"/>
			<point x="312" y="134"/>
			<point x="323" y="145"/>
			<point x="351" y="171" type="curve"/>
			<point x="318" y="209" type="line"/>
			<point x="305" y="197"/>
			<point x="297" y="184"/>
			<point x="283" y="184" type="curve" smooth="yes"/>
			<point x="271" y="184"/>
			<point x="257" y="191"/>
			<point x="257" y="208" type="curve" smooth="yes"/>
			<point x="257" y="225"/>
			<point x="267" y="234"/>
			<point x="339" y="273" type="curve" smooth="yes"/>
			<point x="391" y="301" type="line" smooth="yes"/>
			<point x="451" y="333"/>
			<point x="505" y="364"/>
		</contour>
		<contour>
			<point x="283" y="-13" type="curve" smooth="yes"/>
			<point x="311" y="-13"/>
			<point x="334" y="11"/>
			<point x="334" y="38" type="curve" smooth="yes"/>
			<point x="334" y="65"/>
			<point x="311" y="89"/>
			<point x="283" y="89" type="curve" smooth="yes"/>
			<point x="255" y="89"/>
			<point x="231" y="65"/>
			<point x="231" y="38" type="curve" smooth="yes"/>
			<point x="231" y="11"/>
			<point x="255" y="-13"/>
		</contour>
	</outline>
</glyph>
<glyph name="A" format="2">
	<advance width="600"/>
	<unicode hex="0041"/>
	<anchor x="303" y="590" name="top"/>
	<note>
		A
	</note>
	<outline>
		<contour>
			<point x="578" y="50" type="line"/>
			<point x="525" y="50" type="line"/>
			<point x="342" y="590" type="line"/>
			<point x="278" y="590"/>
			<point x="240" y="590"/>
			<point x="177" y="603" type="curve"/>
			<point x="166" y="555" type="line"/>
			<point x="197" y="547"/>
			<point x="228" y="543"/>
			<point x="258" y="541" type="curve"/>
			<point x="74" y="50" type="line"/>
			<point x="21" y="50" type="line"/>
			<point x="21" y="0" type="line"/>
			<point x="209" y="0" type="line"/>
			<point x="209" y="50" type="line"/>
			<point x="126" y="50" type="line"/>
			<point x="187" y="219" type="line"/>
			<point x="416" y="219" type="line"/>
			<point x="473" y="50" type="line"/>
			<point x="390" y="50" type="line"/>
			<point x="390" y="0" type="line"/>
			<point x="578" y="0" type="line"/>
		</contour>
		<contour>
			<point x="399" y="269" type="line"/>
			<point x="205" y="269" type="line"/>
			<point x="303" y="540" type="line"/>
			<point x="306" y="540" type="line"/>
		</contour>
	</outline>
</glyph>
<glyph name="B" format="2">
	<advance width="600"/>
	<unicode hex="0042"/>
	<note>
		B
	</note>
	<outline>
		<contour>
			<point x="138" y="589" type="curve" smooth="yes"/>
			<point x="196" y="587"/>
			<point x="256" y="593"/>
			<point x="317" y="593" type="curve" smooth="yes"/>
			<point x="433" y="593"/>
			<point x="521" y="551"/>
			<point x="521" y="436" type="curve" smooth="yes"/>
			<point x="521" y="377"/>
			<point x="483" y="326"/>
			<point x="426" y="315" type="curve"/>
			<point x="507" y="299"/>
			<point x="554" y="251"/>
			<point x="554" y="172" type="curve" smooth="yes"/>
			<point x="554" y="37"/>
			<point x="451" y="-4"/>
			<point x="315" y="-4" type="curve" smooth="yes"/>
			<point x="255" y="-4"/>
			<point x="202" y="0"/>
			<point x="142" y="0" type="curve" smooth="yes"/>
			<point x="26" y="0" type="line"/>
			<point x="26" y="50" type="line"/>
			<point x="118" y="50" type="line"/>
			<point x="118" y="539" type="line"/>
			<point x="85" y="541"/>
			<point x="50" y="545"/>
			<point x="15" y="552" type="curve"/>
			<point x="27" y="601" type="line"/>
			<point x="70" y="593"/>
			<point x="102" y="590"/>
		</contour>
		<contour>
			<point x="168" y="539" type="curve"/>
			<point x="168" y="339" type="line"/>
			<point x="315" y="338" type="line" smooth="yes"/>
			<point x="400" y="337"/>
			<point x="471" y="354"/>
			<point x="471" y="436" type="curve" smooth="yes"/>
			<point x="471" y="509"/>
			<point x="417" y="543"/>
			<point x="318" y="543" type="curve" smooth="yes"/>
			<point x="267" y="543"/>
			<point x="219" y="539"/>
		</contour>
		<contour>
			<point x="168" y="289" type="line"/>
			<point x="168" y="50" type="line"/>
			<point x="315" y="46" type="line" smooth="yes"/>
			<point x="426" y="43"/>
			<point x="504" y="75"/>
			<point x="504" y="172" type="curve" smooth="yes"/>
			<point x="504" y="262"/>
			<point x="426" y="289"/>
			<point x="315" y="289" type="curve" smooth="yes"/>
		</contour>
	</outline>
</glyph>
<glyph name="C" format="2">
	<advance width="600"/>
	<unicode hex="0043"/>
	<note>
		C
	</note>
	<outline>
		<contour>
			<point x="298" y="553" type="curve" smooth="yes"/>
			<point x="174" y="555"/>
			<point x="83" y="438"/>
			<point x="83" y="290" type="curve" smooth="yes"/>
			<point x="83" y="132"/>
			<point x="191" y="37"/>
			<point x="300" y="37" type="curve" smooth="yes"/>
			<point x="413" y="37"/>
			<point x="495" y="126"/>
			<point x="537" y="246" type="curve"/>
			<point x="584" y="228" type="line"/>
			<point x="529" y="79"/>
			<point x="441" y="-13"/>
			<point x="300" y="-13" type="curve" smooth="yes"/>
			<point x="154" y="-13"/>
			<point x="33" y="104"/>
			<point x="33" y="290" type="curve" smooth="yes"/>
			<point x="33" y="476"/>
			<point x="146" y="603"/>
			<point x="298" y="603" type="curve" smooth="yes"/>
			<point x="421" y="603"/>
			<point x="495" y="502"/>
			<point x="495" y="406" type="curve" smooth="yes"/>
			<point x="495" y="365"/>
			<point x="472" y="333"/>
			<point x="438" y="333" type="curve" smooth="yes"/>
			<point x="403" y="333"/>
			<point x="378" y="359"/>
			<point x="378" y="391" type="curve" smooth="yes"/>
			<point x="378" y="434"/>
			<point x="426" y="449"/>
			<point x="444" y="438" type="curve"/>
			<point x="444" y="501"/>
			<point x="367" y="552"/>
		</contour>
	</outline>
</glyph>
<glyph name="F" format="2">
	<advance width="600"/>
	<unicode hex="0046"/>
	<note>
		F
	</note>
	<outline>
		<contour>
			<point x="25" y="590" type="line"/>
			<point x="529" y="590" type="line"/>
			<point x="553" y="303" type="line"/>
			<point x="505" y="298" type="line"/>
			<point x="486" y="540" type="line"/>
			<point x="199" y="540" type="line"/>
			<point x="198" y="321" type="line"/>
			<point x="351" y="321" type="line"/>
			<point x="351" y="430" type="line"/>
			<point x="401" y="430" type="line"/>
			<point x="401" y="165" type="line"/>
			<point x="351" y="165" type="line"/>
			<point x="351" y="271" type="line"/>
			<point x="199" y="271" type="line"/>
			<point x="199" y="50" type="line"/>
			<point x="323" y="50" type="line"/>
			<point x="323" y="0" type="line"/>
			<point x="25" y="0" type="line"/>
			<point x="25" y="50" type="line"/>
			<point x="149" y="50" type="line"/>
			<point x="149" y="540" type="line"/>
			<point x="25" y="540" type="line"/>
		</contour>
	</outline>
</glyph>
<glyph name="H" format="2">
	<advance width="600"/>
	<unicode hex="0048"/>
	<note>
		H
	</note>
	<outline>
		<contour>
			<point x="15" y="50" type="line"/>
			<point x="15" y="0" type="line"/>
			<point x="250" y="0" type="line"/>
			<point x="250" y="50" type="line"/>
			<point x="158" y="50" type="line"/>
			<point x="158" y="279" type="line"/>
			<point x="443" y="279" type="line"/>
			<point x="443" y="50" type="line"/>
			<point x="351" y="50" type="line"/>
			<point x="351" y="0" type="line"/>
			<point x="585" y="0" type="line"/>
			<point x="585" y="50" type="line"/>
			<point x="493" y="50" type="line"/>
			<point x="493" y="540" type="line"/>
			<point x="585" y="540" type="line"/>
			<point x="585" y="590" type="line"/>
			<point x="351" y="590" type="line"/>
			<point x="351" y="540" type="line"/>
			<point x="443" y="540" type="line"/>
			<point x="443" y="329" type="line"/>
			<point x="158" y="329" type="line"/>
			<point x="158" y="540" type="line"/>
			<point x="250" y="540" type="line"/>
			<point x="250" y="590" type="line"/>
			<point x="15" y="590" type="line"/>
			<point x="15" y="540" type="line"/>
			<point x="108" y="540" type="line"/>
			<point x="108" y="50" type="line"/>
		</contour>
	</outline>
</glyph>
<glyph name="I" format="2">
	<advance width="600"/>
	<unicode hex="0049"/>
	<anchor x="302" y="590" name="top"/>
	<note>
		I
	</note>
	<outline>
		<contour>
			<point x="326" y="50" type="line"/>
			<point x="326" y="540" type="line"/>
			<point x="499" y="540" type="line"/>
			<point x="499" y="590" type="line"/>
			<point x="101" y="590" type="line"/>
			<point x="101" y="540" type="line"/>
			<point x="276" y="540" type="line"/>
			<point x="276" y="50" type="line"/>
			<point x="101" y="50" type="line"/>
			<point x="101" y="0" type="line"/>
			<point x="499" y="0" type="line"/>
			<point x="499" y="50" type="line"/>
		</contour>
	</outline>
</glyph>
<glyph name="J" format="2">
	<advance width="600"/>
	<unicode hex="004A"/>
	<note>
		J
	</note>
	<outline>
		<contour>
			<point x="397" y="540" type="line"/>
			<point x="397" y="236" type="line" smooth="yes"/>
			<point x="397" y="46"/>
			<point x="295" y="37"/>
			<point x="241" y="37" type="curve" smooth="yes"/>
			<point x="181" y="37"/>
			<point x="100" y="86"/>
			<point x="100" y="153" type="curve" smooth="yes"/>
			<point x="100" y="180"/>
			<point x="108" y="199"/>
			<point x="116" y="207" type="curve"/>
			<point x="118" y="191"/>
			<point x="132" y="171"/>
			<point x="156" y="171" type="curve" smooth="yes"/>
			<point x="183" y="171"/>
			<point x="202" y="191"/>
			<point x="202" y="220" type="curve" smooth="yes"/>
			<point x="202" y="246"/>
			<point x="178" y="275"/>
			<point x="146" y="275" type="curve" smooth="yes"/>
			<point x="89" y="275"/>
			<point x="50" y="221"/>
			<point x="50" y="153" type="curve" smooth="yes"/>
			<point x="50" y="56"/>
			<point x="145" y="-13"/>
			<point x="242" y="-13" type="curve" smooth="yes"/>
			<point x="321" y="-13"/>
			<point x="447" y="21"/>
			<point x="447" y="236" type="curve" smooth="yes"/>
			<point x="447" y="540" type="line"/>
			<point x="584" y="540" type="line"/>
			<point x="584" y="590" type="line"/>
			<point x="172" y="590" type="line"/>
			<point x="172" y="540" type="line"/>
		</contour>
	</outline>
</glyph>
<glyph name="K" format="2">
	<advance width="600"/>
	<unicode hex="004B"/>
	<note>
		K
	</note>
	<outline>
		<contour>
			<point x="593" y="126" type="line"/>
			<point x="543" y="127" type="line"/>
			<point x="545" y="68"/>
			<point x="531" y="37"/>
			<point x="500" y="37" type="curve" smooth="yes"/>
			<point x="478" y="37"/>
			<point x="457" y="63"/>
			<point x="425" y="122" type="curve" smooth="yes"/>
			<point x="306" y="342" type="line"/>
			<point x="481" y="540" type="line"/>
			<point x="552" y="540" type="line"/>
			<point x="552" y="590" type="line"/>
			<point x="330" y="590" type="line"/>
			<point x="330" y="540" type="line"/>
			<point x="415" y="540" type="line"/>
			<point x="155" y="247" type="line"/>
			<point x="155" y="540" type="line"/>
			<point x="244" y="540" type="line"/>
			<point x="244" y="590" type="line"/>
			<point x="16" y="590" type="line"/>
			<point x="16" y="540" type="line"/>
			<point x="105" y="540" type="line"/>
			<point x="105" y="50" type="line"/>
			<point x="16" y="50" type="line"/>
			<point x="16" y="0" type="line"/>
			<point x="244" y="0" type="line"/>
			<point x="244" y="50" type="line"/>
			<point x="155" y="50" type="line"/>
			<point x="155" y="170" type="line"/>
			<point x="267" y="297" type="line"/>
			<point x="380" y="92" type="line" smooth="yes"/>
			<point x="421" y="18"/>
			<point x="452" y="-13"/>
			<point x="498" y="-13" type="curve" smooth="yes"/>
			<point x="550" y="-13"/>
			<point x="593" y="19"/>
			<point x="593" y="98" type="curve" smooth="yes"/>
		</contour>
	</outline>
</glyph>
<glyph name="N" format="2">
	<advance width="600"/>
	<unicode hex="004E"/>
	<note>
		N
	</note>
	<outline>
		<contour>
			<point x="577" y="590" type="line"/>
			<point x="373" y="590" type="line"/>
			<point x="373" y="540" type="line"/>
			<point x="450" y="540" type="line"/>
			<point x="450" y="49" type="line"/>
			<point x="186" y="590" type="line"/>
			<point x="122" y="590"/>
			<point x="84" y="590"/>
			<point x="21" y="603" type="curve"/>
			<point x="10" y="555" type="line"/>
			<point x="41" y="547"/>
			<point x="73" y="543"/>
			<point x="103" y="541" type="curve"/>
			<point x="103" y="50" type="line"/>
			<point x="26" y="50" type="line"/>
			<point x="26" y="0" type="line"/>
			<point x="231" y="0" type="line"/>
			<point x="231" y="50" type="line"/>
			<point x="154" y="50" type="line"/>
			<point x="154" y="540" type="line"/>
			<point x="155" y="540" type="line"/>
			<point x="418" y="0" type="line"/>
			<point x="500" y="0" type="line"/>
			<point x="500" y="540" type="line"/>
			<point x="577" y="540" type="line"/>
		</contour>
	</outline>
</glyph>
<glyph name="P" format="2">
	<advance width="600"/>
	<unicode hex="0050"/>
	<note>
		P
	</note>
	<outline>
		<contour>
			<point x="43" y="554" type="curve"/>
			<point x="55" y="602" type="line"/>
			<point x="98" y="594"/>
			<point x="129" y="591"/>
			<point x="165" y="590" type="curve" smooth="yes"/>
			<point x="208" y="589"/>
			<point x="282" y="594"/>
			<point x="319" y="594" type="curve" smooth="yes"/>
			<point x="471" y="594"/>
			<point x="556" y="527"/>
			<point x="556" y="402" type="curve" smooth="yes"/>
			<point x="556" y="277"/>
			<point x="471" y="212"/>
			<point x="319" y="212" type="curve" smooth="yes"/>
			<point x="275" y="212"/>
			<point x="246" y="214"/>
			<point x="196" y="214" type="curve"/>
			<point x="196" y="50" type="line"/>
			<point x="297" y="50" type="line"/>
			<point x="297" y="0" type="line"/>
			<point x="44" y="0" type="line"/>
			<point x="44" y="50" type="line"/>
			<point x="146" y="50" type="line"/>
			<point x="146" y="541" type="line"/>
			<point x="113" y="543"/>
			<point x="78" y="547"/>
		</contour>
		<contour>
			<point x="196" y="540" type="curve"/>
			<point x="196" y="265" type="line"/>
			<point x="246" y="265"/>
			<point x="275" y="262"/>
			<point x="319" y="262" type="curve" smooth="yes"/>
			<point x="452" y="262"/>
			<point x="506" y="320"/>
			<point x="506" y="402" type="curve" smooth="yes"/>
			<point x="506" y="484"/>
			<point x="452" y="544"/>
			<point x="319" y="544" type="curve" smooth="yes"/>
			<point x="293" y="544"/>
			<point x="263" y="543"/>
			<point x="234" y="542" type="curve"/>
			<point x="222" y="541"/>
			<point x="209" y="541"/>
		</contour>
	</outline>
</glyph>
<glyph name="Q" format="2">
	<advance width="600"/>
	<unicode hex="0051"/>
	<note>
		Q
	</note>
	<outline>
		<contour>
			<point x="13" y="290" type="curve" smooth="yes"/>
			<point x="13" y="109"/>
			<point x="128" y="-7"/>
			<point x="259" y="-13" type="curve"/>
			<point x="259" y="-34" type="line" smooth="yes"/>
			<point x="259" y="-115"/>
			<point x="297" y="-166"/>
			<point x="361" y="-166" type="curve" smooth="yes"/>
			<point x="418" y="-166"/>
			<point x="467" y="-124"/>
			<point x="467" y="-11" type="curve"/>
			<point x="419" y="-11" type="line"/>
			<point x="417" y="-99"/>
			<point x="394" y="-120"/>
			<point x="361" y="-120" type="curve" smooth="yes"/>
			<point x="331" y="-120"/>
			<point x="305" y="-103"/>
			<point x="305" y="-35" type="curve" smooth="yes"/>
			<point x="305" y="-11" type="line"/>
			<point x="434" y="7"/>
			<point x="538" y="119"/>
			<point x="538" y="290" type="curve" smooth="yes"/>
			<point x="538" y="476"/>
			<point x="416" y="603"/>
			<point x="271" y="603" type="curve" smooth="yes"/>
			<point x="135" y="603"/>
			<point x="13" y="476"/>
		</contour>
		<contour>
			<point x="63" y="290" type="curve" smooth="yes"/>
			<point x="63" y="448"/>
			<point x="162" y="553"/>
			<point x="270" y="552" type="curve" smooth="yes"/>
			<point x="388" y="551"/>
			<point x="488" y="448"/>
			<point x="487" y="290" type="curve" smooth="yes"/>
			<point x="486" y="148"/>
			<point x="407" y="58"/>
			<point x="305" y="42" type="curve"/>
			<point x="305" y="79" type="line" smooth="yes"/>
			<point x="305" y="230"/>
			<point x="252" y="264"/>
			<point x="184" y="264" type="curve" smooth="yes"/>
			<point x="137" y="264"/>
			<point x="97" y="242"/>
			<point x="78" y="191" type="curve"/>
			<point x="68" y="221"/>
			<point x="63" y="254"/>
		</contour>
		<contour>
			<point x="109" y="127" type="curve"/>
			<point x="114" y="196"/>
			<point x="145" y="219"/>
			<point x="184" y="219" type="curve" smooth="yes"/>
			<point x="226" y="219"/>
			<point x="261" y="204"/>
			<point x="259" y="79" type="curve" smooth="yes"/>
			<point x="259" y="39" type="line"/>
			<point x="200" y="43"/>
			<point x="145" y="74"/>
		</contour>
	</outline>
</glyph>
<glyph name="S" format="2">
	<advance width="600"/>
	<unicode hex="0053"/>
	<note>
		S
	</note>
	<outline>
		<contour>
			<point x="309" y="-13" type="curve" smooth="yes"/>
			<point x="426" y="-13"/>
			<point x="535" y="45"/>
			<point x="535" y="159" type="curve" smooth="yes"/>
			<point x="535" y="263"/>
			<point x="448" y="318"/>
			<point x="344" y="337" type="curve" smooth="yes"/>
			<point x="272" y="350" type="line" smooth="yes"/>
			<point x="181" y="366"/>
			<point x="135" y="401"/>
			<point x="135" y="460" type="curve" smooth="yes"/>
			<point x="135" y="515"/>
			<point x="217" y="553"/>
			<point x="297" y="553" type="curve" smooth="yes"/>
			<point x="397" y="553"/>
			<point x="438" y="532"/>
			<point x="465" y="496" type="curve"/>
			<point x="444" y="503"/>
			<point x="407" y="486"/>
			<point x="407" y="450" type="curve" smooth="yes"/>
			<point x="407" y="418"/>
			<point x="430" y="397"/>
			<point x="465" y="397" type="curve" smooth="yes"/>
			<point x="495" y="397"/>
			<point x="520" y="426"/>
			<point x="520" y="465" type="curve" smooth="yes"/>
			<point x="520" y="540"/>
			<point x="439" y="603"/>
			<point x="297" y="603" type="curve" smooth="yes"/>
			<point x="179" y="603"/>
			<point x="85" y="542"/>
			<point x="85" y="460" type="curve" smooth="yes"/>
			<point x="85" y="386"/>
			<point x="117" y="328"/>
			<point x="262" y="301" type="curve" smooth="yes"/>
			<point x="338" y="287" type="line" smooth="yes"/>
			<point x="427" y="271"/>
			<point x="486" y="231"/>
			<point x="485" y="159" type="curve" smooth="yes"/>
			<point x="484" y="73"/>
			<point x="392" y="36"/>
			<point x="309" y="37" type="curve" smooth="yes"/>
			<point x="234" y="38"/>
			<point x="169" y="51"/>
			<point x="121" y="105" type="curve"/>
			<point x="142" y="98"/>
			<point x="178" y="115"/>
			<point x="178" y="151" type="curve" smooth="yes"/>
			<point x="178" y="183"/>
			<point x="155" y="203"/>
			<point x="120" y="203" type="curve" smooth="yes"/>
			<point x="90" y="203"/>
			<point x="65" y="175"/>
			<point x="65" y="136" type="curve" smooth="yes"/>
			<point x="65" y="51"/>
			<point x="177" y="-13"/>
		</contour>
	</outline>
</glyph>
<glyph name="T" format="2">
	<advance width="600"/>
	<unicode hex="0054"/>
	<note>
		T
	</note>
	<outline>
		<contour>
			<point x="85" y="298" type="line"/>
			<point x="36" y="303" type="line"/>
			<point x="60" y="590" type="line"/>
			<point x="547" y="590" type="line"/>
			<point x="571" y="303" type="line"/>
			<point x="522" y="298" type="line"/>
			<point x="503" y="540" type="line"/>
			<point x="328" y="540" type="line"/>
			<point x="328" y="50" type="line"/>
			<point x="444" y="50" type="line"/>
			<point x="444" y="0" type="line"/>
			<point x="163" y="0" type="line"/>
			<point x="163" y="50" type="line"/>
			<point x="278" y="50" type="line"/>
			<point x="278" y="540" type="line"/>
			<point x="104" y="540" type="line"/>
		</contour>
	</outline>
</glyph>
<glyph name="U" format="2">
	<advance width="600"/>
	<unicode hex="0055"/>
	<anchor x="311" y="590" name="top"/>
	<note>
		U
	</note>
	<outline>
		<contour>
			<point x="28" y="590" type="line"/>
			<point x="28" y="540" type="line"/>
			<point x="99" y="540" type="line"/>
			<point x="99" y="212" type="line" smooth="yes"/>
			<point x="99" y="49"/>
			<point x="197" y="-13"/>
			<point x="300" y="-13" type="curve" smooth="yes"/>
			<point x="403" y="-13"/>
			<point x="501" y="48"/>
			<point x="501" y="212" type="curve" smooth="yes"/>
			<point x="501" y="540" type="line"/>
			<point x="572" y="540" type="line"/>
			<point x="572" y="590" type="line"/>
			<point x="357" y="590" type="line"/>
			<point x="357" y="540" type="line"/>
			<point x="451" y="540" type="line"/>
			<point x="451" y="222" type="line" smooth="yes"/>
			<point x="451" y="82"/>
			<point x="380" y="37"/>
			<point x="300" y="37" type="curve" smooth="yes"/>
			<point x="220" y="37"/>
			<point x="149" y="82"/>
			<point x="149" y="222" type="curve" smooth="yes"/>
			<point x="149" y="540" type="line"/>
			<point x="243" y="540" type="line"/>
			<point x="243" y="590" type="line"/>
		</contour>
	</outline>
</glyph>
<glyph name="V" format="2">
	<advance width="600"/>
	<unicode hex="0056"/>
	<note>
		V
	</note>
	<outline>
		<contour>
			<point x="209" y="590" type="line"/>
			<point x="24" y="590" type="line"/>
			<point x="24" y="540" type="line"/>
			<point x="74" y="540" type="line"/>
			<point x="268" y="0" type="line"/>
			<point x="341" y="0" type="line"/>
			<point x="525" y="540" type="line"/>
			<point x="575" y="540" type="line"/>
			<point x="575" y="590" type="line"/>
			<point x="390" y="590" type="line"/>
			<point x="390" y="540" type="line"/>
			<point x="473" y="540" type="line"/>
			<point x="305" y="46" type="line"/>
			<point x="126" y="540" type="line"/>
			<point x="209" y="540" type="line"/>
		</contour>
	</outline>
</glyph>
<glyph name="Y" format="2">
	<advance width="600"/>
	<unicode hex="0059"/>
	<anchor x="309" y="590" name="top"/>
	<note>
		Y
	</note>
	<outline>
		<contour>
			<point x="105" y="540" type="line"/>
			<point x="27" y="540" type="line"/>
			<point x="27" y="590" type="line"/>
			<point x="239" y="590" type="line"/>
			<point x="239" y="540" type="line"/>
			<point x="159" y="540" type="line"/>
			<point x="300" y="278" type="line"/>
			<point x="440" y="540" type="line"/>
			<point x="360" y="540" type="line"/>
			<point x="360" y="590" type="line"/>
			<point x="572" y="590" type="line"/>
			<point x="572" y="540" type="line"/>
			<point x="494" y="540" type="line"/>
			<point x="324" y="230" type="line"/>
			<point x="324" y="50" type="line"/>
			<point x="439" y="50" type="line"/>
			<point x="439" y="0" type="line"/>
			<point x="159" y="0" type="line"/>
			<point x="159" y="50" type="line"/>
			<point x="274" y="50" type="line"/>
			<point x="274" y="230" type="line"/>
		</contour>
	</outline>
</glyph>
<glyph name="Z" format="2">
	<advance width="600"/>
	<unicode hex="005A"/>
	<note>
		Z
	</note>
	<outline>
		<contour>
			<point x="117" y="298" type="line"/>
			<point x="67" y="303" type="line"/>
			<point x="91" y="590" type="line"/>
			<point x="520" y="590" type="line"/>
			<point x="520" y="540" type="line"/>
			<point x="149" y="50" type="line"/>
			<point x="464" y="50" type="line"/>
			<point x="483" y="292" type="line"/>
			<point x="533" y="287" type="line"/>
			<point x="509" y="0" type="line"/>
			<point x="80" y="0" type="line"/>
			<point x="80" y="50" type="line"/>
			<point x="451" y="540" type="line"/>
			<point x="136" y="540" type="line"/>
		</contour>
	</outline>
</glyph>
<glyph name="asciicircum" format="2">
	<advance width="600"/>
	<unicode hex="005E"/>
	<note>
		asciicircum
	</note>
	<outline>
		<contour>
			<point x="265" y="603" type="line"/>
			<point x="335" y="603" type="line"/>
			<point x="458" y="364" type="line"/>
			<point x="413" y="341" type="line"/>
			<point x="300" y="560" type="line"/>
			<point x="187" y="341" type="line"/>
			<point x="142" y="364" type="line"/>
		</contour>
	</outline>
</glyph>
<glyph name="grave" format="2">
	<advance width="600"/>
	<unicode hex="0060"/>
	<note>
		grave
	</note>
	<outline>
		<contour>
			<point x="459" y="472" type="line"/>
			<point x="467" y="505" type="line"/>
			<point x="156" y="580" type="line"/>
			<point x="144" y="533" type="line"/>
		</contour>
	</outline>
</glyph>
<glyph name="d" format="2">
	<advance width="600"/>
	<unicode hex="0064"/>
	<note>
		d
	</note>
	<outline>
		<contour>
			<point x="413" y="540" type="line"/>
			<point x="413" y="345" type="line"/>
			<point x="374" y="400"/>
			<point x="313" y="443"/>
			<point x="244" y="443" type="curve" smooth="yes"/>
			<point x="121" y="443"/>
			<point x="38" y="343"/>
			<point x="38" y="216" type="curve" smooth="yes"/>
			<point x="38" y="89"/>
			<point x="121" y="-13"/>
			<point x="244" y="-13" type="curve" smooth="yes"/>
			<point x="312" y="-13"/>
			<point x="373" y="30"/>
			<point x="413" y="85" type="curve"/>
			<point x="411" y="11"/>
			<point x="443" y="-13"/>
			<point x="479" y="-13" type="curve" smooth="yes"/>
			<point x="520" y="-13"/>
			<point x="542" y="11"/>
			<point x="580" y="107" type="curve"/>
			<point x="536" y="128" type="line"/>
			<point x="505" y="55"/>
			<point x="496" y="37"/>
			<point x="479" y="37" type="curve" smooth="yes"/>
			<point x="468" y="37"/>
			<point x="462" y="50"/>
			<point x="462" y="77" type="curve" smooth="yes"/>
			<point x="463" y="590" type="line"/>
			<point x="310" y="590" type="line"/>
			<point x="310" y="540" type="line"/>
		</contour>
		<contour>
			<point x="413" y="272" type="curve"/>
			<point x="413" y="158" type="line"/>
			<point x="357" y="93"/>
			<point x="310" y="37"/>
			<point x="244" y="37" type="curve" smooth="yes"/>
			<point x="150" y="37"/>
			<point x="87" y="114"/>
			<point x="88" y="216" type="curve" smooth="yes"/>
			<point x="89" y="315"/>
			<point x="149" y="393"/>
			<point x="244" y="393" type="curve" smooth="yes"/>
			<point x="313" y="393"/>
			<point x="358" y="337"/>
		</contour>
	</outline>
</glyph>
<glyph name="e" format="2">
	<advance width="600"/>
	<unicode hex="0065"/>
	<note>
		e
	</note>
	<outline>
		<contour>
			<point x="66" y="223" type="curve" smooth="yes"/>
			<point x="66" y="88"/>
			<point x="171" y="-12"/>
			<point x="289" y="-12" type="curve" smooth="yes"/>
			<point x="379" y="-12"/>
			<point x="466" y="25"/>
			<point x="529" y="137" type="curve"/>
			<point x="486" y="162" type="line"/>
			<point x="444" y="78"/>
			<point x="373" y="38"/>
			<point x="289" y="38" type="curve" smooth="yes"/>
			<point x="192" y="38"/>
			<point x="116" y="119"/>
			<point x="116" y="217" type="curve"/>
			<point x="501" y="217" type="line"/>
			<point x="501" y="237" type="line" smooth="yes"/>
			<point x="501" y="363"/>
			<point x="398" y="442"/>
			<point x="289" y="442" type="curve" smooth="yes"/>
			<point x="167" y="442"/>
			<point x="66" y="377"/>
		</contour>
		<contour>
			<point x="448" y="267" type="curve"/>
			<point x="119" y="267" type="line"/>
			<point x="129" y="342"/>
			<point x="188" y="392"/>
			<point x="289" y="392" type="curve" smooth="yes"/>
			<point x="372" y="392"/>
			<point x="441" y="332"/>
		</contour>
	</outline>
</glyph>
<glyph name="f" format="2">
	<advance width="600"/>
	<unicode hex="0066"/>
	<note>
		f
	</note>
	<outline>
		<contour>
			<point x="56" y="50" type="line"/>
			<point x="56" y="0" type="line"/>
			<point x="393" y="0" type="line"/>
			<point x="393" y="50" type="line"/>
			<point x="240" y="50" type="line"/>
			<point x="240" y="380" type="line"/>
			<point x="393" y="380" type="line"/>
			<point x="393" y="430" type="line"/>
			<point x="242" y="430" type="line"/>
			<point x="251" y="507"/>
			<point x="300" y="553"/>
			<point x="384" y="553" type="curve" smooth="yes"/>
			<point x="472" y="553"/>
			<point x="512" y="505"/>
			<point x="513" y="479" type="curve"/>
			<point x="497" y="490"/>
			<point x="447" y="480"/>
			<point x="447" y="437" type="curve" smooth="yes"/>
			<point x="447" y="404"/>
			<point x="471" y="384"/>
			<point x="504" y="384" type="curve" smooth="yes"/>
			<point x="539" y="384"/>
			<point x="564" y="413"/>
			<point x="564" y="458" type="curve" smooth="yes"/>
			<point x="564" y="541"/>
			<point x="488" y="603"/>
			<point x="385" y="603" type="curve" smooth="yes"/>
			<point x="281" y="603"/>
			<point x="203" y="537"/>
			<point x="192" y="430" type="curve"/>
			<point x="56" y="430" type="line"/>
			<point x="56" y="380" type="line"/>
			<point x="190" y="380" type="line"/>
			<point x="190" y="50" type="line"/>
		</contour>
	</outline>
</glyph>
<glyph name="j" format="2">
	<advance width="600"/>
	<unicode hex="006A"/>
	<note>
		j
	</note>
	<outline>
		<contour>
			<point x="370" y="519" type="curve" smooth="yes"/>
			<point x="370" y="547"/>
			<point x="394" y="571"/>
			<point x="423" y="571" type="curve" smooth="yes"/>
			<point x="451" y="571"/>
			<point x="475" y="547"/>
			<point x="475" y="519" type="curve" smooth="yes"/>
			<point x="475" y="491"/>
			<point x="451" y="467"/>
			<point x="423" y="467" type="curve" smooth="yes"/>
			<point x="394" y="467"/>
			<point x="370" y="491"/>
		</contour>
		<contour>
			<point x="101" y="-17" type="curve" smooth="yes"/>
			<point x="99" y="-114"/>
			<point x="183" y="-173"/>
			<point x="268" y="-173" type="curve" smooth="yes"/>
			<point x="386" y="-173"/>
			<point x="449" y="-94"/>
			<point x="449" y="37" type="curve" smooth="yes"/>
			<point x="449" y="430" type="line"/>
			<point x="156" y="430" type="line"/>
			<point x="156" y="380" type="line"/>
			<point x="399" y="380" type="line"/>
			<point x="399" y="47" type="line" smooth="yes"/>
			<point x="399" y="-54"/>
			<point x="368" y="-123"/>
			<point x="268" y="-123" type="curve" smooth="yes"/>
			<point x="207" y="-123"/>
			<point x="150" y="-81"/>
			<point x="149" y="-26" type="curve"/>
			<point x="157" y="-37"/>
			<point x="168" y="-46"/>
			<point x="192" y="-46" type="curve" smooth="yes"/>
			<point x="216" y="-46"/>
			<point x="238" y="-23"/>
			<point x="238" y="8" type="curve" smooth="yes"/>
			<point x="238" y="46"/>
			<point x="209" y="67"/>
			<point x="173" y="67" type="curve" smooth="yes"/>
			<point x="130" y="67"/>
			<point x="102" y="25"/>
		</contour>
	</outline>
</glyph>
<glyph name="n" format="2">
	<advance width="600"/>
	<unicode hex="006E"/>
	<note>
		n
	</note>
	<outline>
		<contour>
			<point x="48" y="379" type="curve" smooth="yes"/>
			<point x="37" y="363" type="line"/>
			<point x="80" y="339" type="line"/>
			<point x="110" y="381"/>
			<point x="118" y="393"/>
			<point x="129" y="393" type="curve" smooth="yes"/>
			<point x="141" y="393"/>
			<point x="147" y="385"/>
			<point x="147" y="358" type="curve" smooth="yes"/>
			<point x="147" y="50" type="line"/>
			<point x="70" y="50" type="line"/>
			<point x="70" y="0" type="line"/>
			<point x="274" y="0" type="line"/>
			<point x="274" y="50" type="line"/>
			<point x="197" y="50" type="line"/>
			<point x="197" y="252" type="line"/>
			<point x="285" y="343"/>
			<point x="310" y="393"/>
			<point x="365" y="393" type="curve" smooth="yes"/>
			<point x="400" y="393"/>
			<point x="445" y="378"/>
			<point x="445" y="316" type="curve" smooth="yes"/>
			<point x="445" y="50" type="line"/>
			<point x="368" y="50" type="line"/>
			<point x="368" y="0" type="line"/>
			<point x="571" y="0" type="line"/>
			<point x="571" y="50" type="line"/>
			<point x="495" y="50" type="line"/>
			<point x="495" y="316" type="line" smooth="yes"/>
			<point x="495" y="418"/>
			<point x="416" y="443"/>
			<point x="365" y="443" type="curve" smooth="yes"/>
			<point x="303" y="443"/>
			<point x="266" y="398"/>
			<point x="197" y="321" type="curve"/>
			<point x="197" y="351" type="line"/>
			<point x="200" y="425"/>
			<point x="165" y="443"/>
			<point x="129" y="443" type="curve" smooth="yes"/>
			<point x="97" y="443"/>
			<point x="78" y="423"/>
		</contour>
	</outline>
</glyph>
<glyph name="r" format="2">
	<advance width="600"/>
	<unicode hex="0072"/>
	<note>
		r
	</note>
	<outline>
		<contour>
			<point x="55" y="379" type="curve" smooth="yes"/>
			<point x="44" y="363" type="line"/>
			<point x="87" y="339" type="line"/>
			<point x="117" y="381"/>
			<point x="125" y="393"/>
			<point x="136" y="393" type="curve" smooth="yes"/>
			<point x="148" y="393"/>
			<point x="154" y="385"/>
			<point x="154" y="358" type="curve" smooth="yes"/>
			<point x="154" y="50" type="line"/>
			<point x="73" y="50" type="line"/>
			<point x="73" y="0" type="line"/>
			<point x="398" y="0" type="line"/>
			<point x="398" y="50" type="line"/>
			<point x="204" y="50" type="line"/>
			<point x="204" y="251" type="line"/>
			<point x="293" y="358"/>
			<point x="348" y="392"/>
			<point x="394" y="393" type="curve" smooth="yes"/>
			<point x="454" y="394"/>
			<point x="481" y="354"/>
			<point x="484" y="308" type="curve"/>
			<point x="444" y="322"/>
			<point x="413" y="295"/>
			<point x="413" y="265" type="curve" smooth="yes"/>
			<point x="413" y="234"/>
			<point x="439" y="213"/>
			<point x="467" y="213" type="curve" smooth="yes"/>
			<point x="502" y="213"/>
			<point x="536" y="241"/>
			<point x="536" y="294" type="curve" smooth="yes"/>
			<point x="536" y="390"/>
			<point x="480" y="443"/>
			<point x="394" y="443" type="curve" smooth="yes"/>
			<point x="318" y="443"/>
			<point x="276" y="403"/>
			<point x="204" y="323" type="curve"/>
			<point x="204" y="351" type="line"/>
			<point x="207" y="425"/>
			<point x="172" y="443"/>
			<point x="136" y="443" type="curve" smooth="yes"/>
			<point x="104" y="443"/>
			<point x="85" y="423"/>
		</contour>
	</outline>
</glyph>
<glyph name="t" format="2">
	<advance width="600"/>
	<unicode hex="0074"/>
	<note>
		t
	</note>
	<outline>
		<contour>
			<point x="37" y="430" type="line"/>
			<point x="37" y="380" type="line"/>
			<point x="167" y="380" type="line"/>
			<point x="167" y="102" type="line" smooth="yes"/>
			<point x="167" y="3"/>
			<point x="248" y="-13"/>
			<point x="297" y="-13" type="curve" smooth="yes"/>
			<point x="365" y="-13"/>
			<point x="425" y="33"/>
			<point x="553" y="110" type="curve"/>
			<point x="526" y="150" type="line"/>
			<point x="415" y="84"/>
			<point x="354" y="37"/>
			<point x="297" y="37" type="curve" smooth="yes"/>
			<point x="264" y="37"/>
			<point x="217" y="38"/>
			<point x="217" y="114" type="curve" smooth="yes"/>
			<point x="217" y="380" type="line"/>
			<point x="498" y="380" type="line"/>
			<point x="498" y="430" type="line"/>
			<point x="217" y="430" type="line"/>
			<point x="217" y="590" type="line"/>
			<point x="167" y="590" type="line"/>
			<point x="167" y="430" type="line"/>
		</contour>
	</outline>
</glyph>
<glyph name="u" format="2">
	<advance width="600"/>
	<unicode hex="0075"/>
	<note>
		u
	</note>
	<outline>
		<contour>
			<point x="554" y="51" type="line"/>
			<point x="473" y="50" type="line"/>
			<point x="473" y="351" type="line"/>
			<point x="476" y="425"/>
			<point x="444" y="443"/>
			<point x="408" y="443" type="curve" smooth="yes"/>
			<point x="376" y="443"/>
			<point x="354" y="423"/>
			<point x="324" y="379" type="curve" smooth="yes"/>
			<point x="313" y="363" type="line"/>
			<point x="356" y="339" type="line"/>
			<point x="386" y="381"/>
			<point x="394" y="393"/>
			<point x="405" y="393" type="curve" smooth="yes"/>
			<point x="417" y="393"/>
			<point x="423" y="385"/>
			<point x="423" y="358" type="curve" smooth="yes"/>
			<point x="423" y="178" type="line"/>
			<point x="335" y="87"/>
			<point x="310" y="37"/>
			<point x="255" y="37" type="curve" smooth="yes"/>
			<point x="220" y="37"/>
			<point x="175" y="52"/>
			<point x="175" y="114" type="curve" smooth="yes"/>
			<point x="175" y="351" type="line"/>
			<point x="178" y="425"/>
			<point x="146" y="443"/>
			<point x="110" y="443" type="curve" smooth="yes"/>
			<point x="78" y="443"/>
			<point x="56" y="423"/>
			<point x="26" y="379" type="curve" smooth="yes"/>
			<point x="15" y="363" type="line"/>
			<point x="58" y="339" type="line"/>
			<point x="88" y="381"/>
			<point x="96" y="393"/>
			<point x="107" y="393" type="curve" smooth="yes"/>
			<point x="119" y="393"/>
			<point x="125" y="385"/>
			<point x="125" y="358" type="curve" smooth="yes"/>
			<point x="125" y="114" type="line" smooth="yes"/>
			<point x="125" y="12"/>
			<point x="204" y="-13"/>
			<point x="255" y="-13" type="curve" smooth="yes"/>
			<point x="317" y="-13"/>
			<point x="354" y="32"/>
			<point x="423" y="109" type="curve"/>
			<point x="423" y="0" type="line"/>
			<point x="554" y="1" type="line"/>
		</contour>
	</outline>
</glyph>
<glyph name="v" format="2">
	<advance width="600"/>
	<unicode hex="0076"/>
	<note>
		v
	</note>
	<outline>
		<contour>
			<point x="566" y="430" type="line"/>
			<point x="370" y="430" type="line"/>
			<point x="370" y="380" type="line"/>
			<point x="442" y="380" type="line"/>
			<point x="300" y="61" type="line"/>
			<point x="158" y="380" type="line"/>
			<point x="230" y="380" type="line"/>
			<point x="230" y="430" type="line"/>
			<point x="34" y="430" type="line"/>
			<point x="34" y="380" type="line"/>
			<point x="104" y="380" type="line"/>
			<point x="273" y="0" type="line"/>
			<point x="327" y="0" type="line"/>
			<point x="496" y="380" type="line"/>
			<point x="566" y="380" type="line"/>
		</contour>
	</outline>
</glyph>
<glyph name="w" format="2">
	<advance width="600"/>
	<unicode hex="0077"/>
	<note>
		w
	</note>
	<outline>
		<contour>
			<point x="420" y="79" type="line"/>
			<point x="324" y="379" type="line"/>
			<point x="276" y="379" type="line"/>
			<point x="180" y="79" type="line"/>
			<point x="112" y="380" type="line"/>
			<point x="184" y="380" type="line"/>
			<point x="184" y="430" type="line"/>
			<point x="18" y="430" type="line"/>
			<point x="18" y="380" type="line"/>
			<point x="59" y="380" type="line"/>
			<point x="148" y="0" type="line"/>
			<point x="206" y="0" type="line"/>
			<point x="300" y="288" type="line"/>
			<point x="395" y="0" type="line"/>
			<point x="452" y="0" type="line"/>
			<point x="541" y="380" type="line"/>
			<point x="582" y="380" type="line"/>
			<point x="582" y="430" type="line"/>
			<point x="416" y="430" type="line"/>
			<point x="416" y="380" type="line"/>
			<point x="488" y="380" type="line"/>
		</contour>
	</outline>
</glyph>
<glyph name="braceleft" format="2">
	<advance width="600"/>
	<unicode hex="007B"/>
	<note>
		braceleft
	</note>
	<outline>
		<contour>
			<point x="157" y="241" type="curve"/>
			<point x="157" y="191" type="line"/>
			<point x="180" y="178"/>
			<point x="259" y="163"/>
			<point x="249" y="103" type="curve" smooth="yes"/>
			<point x="235" y="20" type="line" smooth="yes"/>
			<point x="216" y="-93"/>
			<point x="297" y="-170"/>
			<point x="377" y="-170" type="curve" smooth="yes"/>
			<point x="450" y="-170"/>
			<point x="504" y="-110"/>
			<point x="504" y="-54" type="curve" smooth="yes"/>
			<point x="504" y="-24"/>
			<point x="483" y="2"/>
			<point x="455" y="2" type="curve" smooth="yes"/>
			<point x="431" y="2"/>
			<point x="408" y="-16"/>
			<point x="408" y="-44" type="curve" smooth="yes"/>
			<point x="408" y="-69"/>
			<point x="432" y="-85"/>
			<point x="449" y="-83" type="curve"/>
			<point x="434" y="-105"/>
			<point x="410" y="-121"/>
			<point x="378" y="-121" type="curve" smooth="yes"/>
			<point x="328" y="-121"/>
			<point x="271" y="-67"/>
			<point x="286" y="21" type="curve" smooth="yes"/>
			<point x="300" y="103" type="line" smooth="yes"/>
			<point x="312" y="176"/>
			<point x="259" y="203"/>
			<point x="210" y="216" type="curve"/>
			<point x="259" y="229"/>
			<point x="312" y="256"/>
			<point x="300" y="329" type="curve" smooth="yes"/>
			<point x="286" y="411" type="line" smooth="yes"/>
			<point x="271" y="499"/>
			<point x="328" y="553"/>
			<point x="378" y="553" type="curve" smooth="yes"/>
			<point x="410" y="553"/>
			<point x="434" y="537"/>
			<point x="449" y="515" type="curve"/>
			<point x="432" y="517"/>
			<point x="408" y="501"/>
			<point x="408" y="476" type="curve" smooth="yes"/>
			<point x="408" y="448"/>
			<point x="435" y="430"/>
			<point x="459" y="430" type="curve" smooth="yes"/>
			<point x="487" y="430"/>
			<point x="504" y="456"/>
			<point x="504" y="486" type="curve" smooth="yes"/>
			<point x="504" y="542"/>
			<point x="450" y="602"/>
			<point x="377" y="602" type="curve" smooth="yes"/>
			<point x="297" y="602"/>
			<point x="216" y="525"/>
			<point x="235" y="412" type="curve" smooth="yes"/>
			<point x="249" y="329" type="line" smooth="yes"/>
			<point x="259" y="269"/>
			<point x="180" y="254"/>
		</contour>
	</outline>
</glyph>
<glyph name="bar" format="2">
	<advance width="600"/>
	<unicode hex="007C"/>
	<note>
		bar
	</note>
	<outline>
		<contour>
			<point x="327" y="591" type="line"/>
			<point x="277" y="591" type="line"/>
			<point x="277" y="-160" type="line"/>
			<point x="327" y="-160" type="line"/>
		</contour>
	</outline>
</glyph>
<glyph name="yen" format="2">
	<advance width="600"/>
	<unicode hex="00A5"/>
	<note>
		yen
	</note>
	<outline>
		<contour>
			<point x="105" y="541" type="line"/>
			<point x="21" y="541" type="line"/>
			<point x="21" y="590" type="line"/>
			<point x="239" y="590" type="line"/>
			<point x="239" y="541" type="line"/>
			<point x="155" y="541" type="line"/>
			<point x="300" y="276" type="line"/>
			<point x="444" y="541" type="line"/>
			<point x="360" y="541" type="line"/>
			<point x="360" y="590" type="line"/>
			<point x="578" y="590" type="line"/>
			<point x="578" y="541" type="line"/>
			<point x="494" y="541" type="line"/>
			<point x="324" y="230" type="line"/>
			<point x="469" y="230" type="line"/>
			<point x="469" y="180" type="line"/>
			<point x="324" y="180" type="line"/>
			<point x="324" y="49" type="line"/>
			<point x="440" y="49" type="line"/>
			<point x="440" y="0" type="line"/>
			<point x="159" y="0" type="line"/>
			<point x="159" y="49" type="line"/>
			<point x="274" y="49" type="line"/>
			<point x="274" y="180" type="line"/>
			<point x="141" y="180" type="line"/>
			<point x="141" y="230" type="line"/>
			<point x="274" y="230" type="line"/>
		</contour>
	</outline>
</glyph>
<glyph name="brokenbar" format="2">
	<advance width="600"/>
	<unicode hex="00A6"/>
	<note>
		brokenbar
	</note>
	<outline>
		<contour>
			<point x="327" y="279" type="line"/>
			<point x="277" y="279" type="line"/>
			<point x="277" y="591" type="line"/>
			<point x="327" y="591" type="line"/>
		</contour>
		<contour>
			<point x="327" y="151" type="line"/>
			<point x="277" y="151" type="line"/>
			<point x="277" y="-160" type="line"/>
			<point x="327" y="-160" type="line"/>
		</contour>
	</outline>
</glyph>
<glyph name="dieresis" format="2">
	<advance width="600"/>
	<unicode hex="00A8"/>
	<guideline x="542" y="580" angle="0"/>
	<guideline x="336" y="746" angle="0"/>
	<anchor x="303" y="424" name="_top"/>
	<note>
		dieresis
	</note>
	<outline>
		<contour>
			<point x="202" y="478" type="curve" smooth="yes"/>
			<point x="230" y="478"/>
			<point x="253" y="502"/>
			<point x="253" y="529" type="curve" smooth="yes"/>
			<point x="253" y="556"/>
			<point x="230" y="580"/>
			<point x="202" y="580" type="curve" smooth="yes"/>
			<point x="174" y="580"/>
			<point x="150" y="556"/>
			<point x="150" y="529" type="curve" smooth="yes"/>
			<point x="150" y="502"/>
			<point x="174" y="478"/>
		</contour>
		<contour>
			<point x="384" y="478" type="curve" smooth="yes"/>
			<point x="412" y="478"/>
			<point x="435" y="502"/>
			<point x="435" y="529" type="curve" smooth="yes"/>
			<point x="435" y="556"/>
			<point x="412" y="580"/>
			<point x="384" y="580" type="curve" smooth="yes"/>
			<point x="356" y="580"/>
			<point x="332" y="556"/>
			<point x="332" y="529" type="curve" smooth="yes"/>
			<point x="332" y="502"/>
			<point x="356" y="478"/>
		</contour>
	</outline>
</glyph>
<glyph name="guillemotleft" format="2">
	<advance width="600"/>
	<unicode hex="00AB"/>
	<note>
		guillemotleft
	</note>
	<outline>
		<contour>
			<point x="162" y="255" type="curve"/>
			<point x="228" y="305"/>
			<point x="284" y="356"/>
			<point x="330" y="406" type="curve"/>
			<point x="300" y="444" type="line"/>
			<point x="240" y="381"/>
			<point x="169" y="318"/>
			<point x="89" y="255" type="curve"/>
			<point x="169" y="192"/>
			<point x="240" y="129"/>
			<point x="300" y="66" type="curve"/>
			<point x="330" y="104" type="line"/>
			<point x="284" y="154"/>
			<point x="228" y="205"/>
		</contour>
		<contour>
			<point x="344" y="255" type="curve"/>
			<point x="410" y="305"/>
			<point x="466" y="356"/>
			<point x="512" y="406" type="curve"/>
			<point x="482" y="444" type="line"/>
			<point x="422" y="381"/>
			<point x="351" y="318"/>
			<point x="271" y="255" type="curve"/>
			<point x="351" y="192"/>
			<point x="422" y="129"/>
			<point x="482" y="66" type="curve"/>
			<point x="512" y="104" type="line"/>
			<point x="466" y="154"/>
			<point x="410" y="205"/>
		</contour>
	</outline>
</glyph>
<glyph name="registered" format="2">
	<advance width="600"/>
	<unicode hex="00AE"/>
	<note>
		registered
	</note>
	<outline>
		<contour>
			<point x="219" y="315" type="curve" smooth="yes"/>
			<point x="299" y="315"/>
			<point x="364" y="380"/>
			<point x="364" y="461" type="curve" smooth="yes"/>
			<point x="364" y="540"/>
			<point x="299" y="603"/>
			<point x="219" y="603" type="curve" smooth="yes"/>
			<point x="137" y="603"/>
			<point x="72" y="540"/>
			<point x="72" y="461" type="curve" smooth="yes"/>
			<point x="72" y="380"/>
			<point x="137" y="315"/>
		</contour>
		<contour>
			<point x="219" y="347" type="curve" smooth="yes"/>
			<point x="150" y="347"/>
			<point x="105" y="404"/>
			<point x="105" y="461" type="curve" smooth="yes"/>
			<point x="105" y="526"/>
			<point x="150" y="572"/>
			<point x="219" y="572" type="curve" smooth="yes"/>
			<point x="285" y="572"/>
			<point x="330" y="526"/>
			<point x="330" y="461" type="curve" smooth="yes"/>
			<point x="330" y="394"/>
			<point x="285" y="347"/>
		</contour>
		<contour>
			<point x="211" y="389" type="line"/>
			<point x="154" y="389" type="line"/>
			<point x="154" y="408" type="line"/>
			<point x="169" y="408" type="line"/>
			<point x="169" y="512" type="line"/>
			<point x="154" y="512" type="line"/>
			<point x="154" y="534" type="line"/>
			<point x="217" y="534" type="line" smooth="yes"/>
			<point x="256" y="534"/>
			<point x="271" y="519"/>
			<point x="271" y="492" type="curve" smooth="yes"/>
			<point x="271" y="464"/>
			<point x="250" y="455"/>
			<point x="242" y="456" type="curve"/>
			<point x="248" y="453"/>
			<point x="250" y="441"/>
			<point x="254" y="430" type="curve" smooth="yes"/>
			<point x="257" y="421"/>
			<point x="260" y="411"/>
			<point x="266" y="411" type="curve" smooth="yes"/>
			<point x="273" y="411"/>
			<point x="276" y="414"/>
			<point x="276" y="430" type="curve" smooth="yes"/>
			<point x="276" y="439" type="line"/>
			<point x="299" y="439" type="line"/>
			<point x="299" y="430" type="line" smooth="yes"/>
			<point x="299" y="398"/>
			<point x="285" y="388"/>
			<point x="266" y="388" type="curve" smooth="yes"/>
			<point x="246" y="388"/>
			<point x="238" y="407"/>
			<point x="231" y="430" type="curve" smooth="yes"/>
			<point x="227" y="443"/>
			<point x="222" y="447"/>
			<point x="211" y="447" type="curve" smooth="yes"/>
			<point x="193" y="447" type="line"/>
			<point x="193" y="408" type="line"/>
			<point x="211" y="408" type="line"/>
		</contour>
		<contour>
			<point x="193" y="511" type="line"/>
			<point x="193" y="470" type="line"/>
			<point x="219" y="470" type="line" smooth="yes"/>
			<point x="234" y="470"/>
			<point x="245" y="474"/>
			<point x="245" y="492" type="curve" smooth="yes"/>
			<point x="245" y="505"/>
			<point x="234" y="511"/>
			<point x="218" y="511" type="curve" smooth="yes"/>
		</contour>
	</outline>
</glyph>
<glyph name="degree" format="2">
	<advance width="600"/>
	<unicode hex="00B0"/>
	<note>
		degree
	</note>
	<outline>
		<contour>
			<point x="301" y="360" type="curve" smooth="yes"/>
			<point x="368" y="360"/>
			<point x="423" y="415"/>
			<point x="423" y="483" type="curve" smooth="yes"/>
			<point x="423" y="550"/>
			<point x="368" y="605"/>
			<point x="301" y="605" type="curve" smooth="yes"/>
			<point x="233" y="605"/>
			<point x="178" y="550"/>
			<point x="178" y="483" type="curve" smooth="yes"/>
			<point x="178" y="415"/>
			<point x="233" y="360"/>
		</contour>
		<contour>
			<point x="301" y="410" type="curve" smooth="yes"/>
			<point x="260" y="410"/>
			<point x="228" y="442"/>
			<point x="228" y="483" type="curve" smooth="yes"/>
			<point x="228" y="523"/>
			<point x="260" y="555"/>
			<point x="301" y="555" type="curve" smooth="yes"/>
			<point x="341" y="555"/>
			<point x="373" y="523"/>
			<point x="373" y="483" type="curve" smooth="yes"/>
			<point x="373" y="442"/>
			<point x="341" y="410"/>
		</contour>
	</outline>
</glyph>
<glyph name="paragraph" format="2">
	<advance width="600"/>
	<unicode hex="00B6"/>
	<note>
		paragraph
	</note>
	<outline>
		<contour>
			<point x="400" y="590" type="curve" smooth="yes"/>
			<point x="357" y="590"/>
			<point x="290" y="594"/>
			<point x="247" y="594" type="curve" smooth="yes"/>
			<point x="135" y="594"/>
			<point x="50" y="527"/>
			<point x="50" y="402" type="curve" smooth="yes"/>
			<point x="50" y="277"/>
			<point x="135" y="212"/>
			<point x="247" y="212" type="curve" smooth="yes"/>
			<point x="297" y="212"/>
			<point x="286" y="214"/>
			<point x="336" y="214" type="curve"/>
			<point x="336" y="0" type="line"/>
			<point x="386" y="0" type="line"/>
			<point x="386" y="540" type="line"/>
			<point x="434" y="540" type="line"/>
			<point x="434" y="95" type="line" smooth="yes"/>
			<point x="434" y="-6"/>
			<point x="403" y="-75"/>
			<point x="303" y="-75" type="curve" smooth="yes"/>
			<point x="242" y="-75"/>
			<point x="185" y="-33"/>
			<point x="184" y="22" type="curve"/>
			<point x="192" y="11"/>
			<point x="203" y="2"/>
			<point x="227" y="2" type="curve" smooth="yes"/>
			<point x="251" y="2"/>
			<point x="273" y="25"/>
			<point x="273" y="56" type="curve" smooth="yes"/>
			<point x="273" y="94"/>
			<point x="244" y="115"/>
			<point x="208" y="115" type="curve" smooth="yes"/>
			<point x="165" y="115"/>
			<point x="137" y="73"/>
			<point x="136" y="31" type="curve" smooth="yes"/>
			<point x="134" y="-66"/>
			<point x="218" y="-125"/>
			<point x="303" y="-125" type="curve" smooth="yes"/>
			<point x="421" y="-125"/>
			<point x="484" y="-46"/>
			<point x="484" y="85" type="curve"/>
			<point x="483" y="541" type="line"/>
			<point x="516" y="543"/>
			<point x="540" y="547"/>
			<point x="574" y="556" type="curve"/>
			<point x="563" y="604" type="line"/>
			<point x="500" y="591"/>
			<point x="464" y="590"/>
		</contour>
		<contour>
			<point x="336" y="540" type="curve"/>
			<point x="336" y="265" type="line"/>
			<point x="286" y="265"/>
			<point x="297" y="262"/>
			<point x="247" y="262" type="curve" smooth="yes"/>
			<point x="154" y="262"/>
			<point x="100" y="320"/>
			<point x="100" y="402" type="curve" smooth="yes"/>
			<point x="100" y="484"/>
			<point x="154" y="544"/>
			<point x="247" y="544" type="curve" smooth="yes"/>
			<point x="279" y="544"/>
			<point x="269" y="544"/>
			<point x="298" y="542" type="curve" smooth="yes"/>
			<point x="310" y="541"/>
			<point x="323" y="541"/>
		</contour>
	</outline>
</glyph>
<glyph name="cedilla" format="2">
	<advance width="600"/>
	<unicode hex="00B8"/>
	<note>
		cedilla
	</note>
	<outline>
		<contour>
			<point x="177" y="-96" type="curve"/>
			<point x="182" y="-116"/>
			<point x="218" y="-136"/>
			<point x="257" y="-136" type="curve" smooth="yes"/>
			<point x="292" y="-136"/>
			<point x="350" y="-128"/>
			<point x="350" y="-102" type="curve" smooth="yes"/>
			<point x="350" y="-82"/>
			<point x="325" y="-74"/>
			<point x="288" y="-72" type="curve" smooth="yes"/>
			<point x="273" y="-71" type="line"/>
			<point x="273" y="10" type="line"/>
			<point x="315" y="10" type="line"/>
			<point x="315" y="-37" type="line"/>
			<point x="357" y="-44"/>
			<point x="393" y="-60"/>
			<point x="393" y="-102" type="curve" smooth="yes"/>
			<point x="393" y="-156"/>
			<point x="315" y="-173"/>
			<point x="257" y="-173" type="curve" smooth="yes"/>
			<point x="175" y="-173"/>
			<point x="138" y="-128"/>
			<point x="138" y="-92" type="curve" smooth="yes"/>
			<point x="138" y="-60"/>
			<point x="154" y="-44"/>
			<point x="176" y="-44" type="curve" smooth="yes"/>
			<point x="190" y="-44"/>
			<point x="207" y="-54"/>
			<point x="207" y="-70" type="curve" smooth="yes"/>
			<point x="207" y="-85"/>
			<point x="199" y="-104"/>
		</contour>
	</outline>
</glyph>
<glyph name="onehalf" format="2">
	<advance width="600"/>
	<unicode hex="00BD"/>
	<note>
		onehalf
	</note>
	<outline>
		<contour>
			<point x="189" y="360" type="line"/>
			<point x="189" y="590" type="line"/>
			<point x="146" y="590" type="line"/>
			<point x="117" y="532"/>
			<point x="91" y="500"/>
			<point x="33" y="456" type="curve"/>
			<point x="55" y="431" type="line"/>
			<point x="110" y="469"/>
			<point x="128" y="486"/>
			<point x="152" y="525" type="curve"/>
			<point x="152" y="360" type="line"/>
			<point x="53" y="360" type="line"/>
			<point x="53" y="323" type="line"/>
			<point x="257" y="323" type="line"/>
			<point x="257" y="360" type="line"/>
		</contour>
		<contour>
			<point x="149" y="33" type="line"/>
			<point x="495" y="518" type="line"/>
			<point x="464" y="541" type="line"/>
			<point x="119" y="57" type="line"/>
		</contour>
		<contour>
			<point x="358" y="-13" type="curve"/>
			<point x="324" y="5" type="line"/>
			<point x="324" y="89"/>
			<point x="359" y="104"/>
			<point x="409" y="124" type="curve" smooth="yes"/>
			<point x="461" y="145" type="line" smooth="yes"/>
			<point x="486" y="155"/>
			<point x="502" y="172"/>
			<point x="502" y="195" type="curve" smooth="yes"/>
			<point x="502" y="218"/>
			<point x="474" y="236"/>
			<point x="441" y="236" type="curve" smooth="yes"/>
			<point x="398" y="236"/>
			<point x="377" y="220"/>
			<point x="376" y="203" type="curve"/>
			<point x="391" y="207"/>
			<point x="410" y="196"/>
			<point x="410" y="175" type="curve" smooth="yes"/>
			<point x="410" y="157"/>
			<point x="397" y="145"/>
			<point x="375" y="145" type="curve" smooth="yes"/>
			<point x="353" y="145"/>
			<point x="335" y="166"/>
			<point x="335" y="193" type="curve" smooth="yes"/>
			<point x="335" y="241"/>
			<point x="384" y="274"/>
			<point x="441" y="274" type="curve" smooth="yes"/>
			<point x="490" y="274"/>
			<point x="540" y="244"/>
			<point x="540" y="196" type="curve" smooth="yes"/>
			<point x="540" y="148"/>
			<point x="506" y="122"/>
			<point x="472" y="108" type="curve" smooth="yes"/>
			<point x="423" y="88" type="line" smooth="yes"/>
			<point x="389" y="74"/>
			<point x="364" y="69"/>
			<point x="364" y="34" type="curve"/>
			<point x="376" y="43"/>
			<point x="391" y="50"/>
			<point x="416" y="50" type="curve" smooth="yes"/>
			<point x="451" y="50"/>
			<point x="457" y="25"/>
			<point x="495" y="25" type="curve" smooth="yes"/>
			<point x="519" y="25"/>
			<point x="524" y="46"/>
			<point x="519" y="85" type="curve"/>
			<point x="557" y="85" type="line"/>
			<point x="561" y="14"/>
			<point x="536" y="-13"/>
			<point x="495" y="-13" type="curve" smooth="yes"/>
			<point x="446" y="-13"/>
			<point x="451" y="12"/>
			<point x="416" y="12" type="curve" smooth="yes"/>
			<point x="396" y="12"/>
			<point x="377" y="2"/>
		</contour>
	</outline>
</glyph>
<glyph name="threequarters" format="2">
	<advance width="600"/>
	<unicode hex="00BE"/>
	<note>
		threequarters
	</note>
	<outline>
		<contour>
			<point x="280" y="413" type="curve" smooth="yes"/>
			<point x="280" y="471"/>
			<point x="232" y="500"/>
			<point x="201" y="500" type="curve"/>
			<point x="272" y="563" type="line"/>
			<point x="272" y="590" type="line"/>
			<point x="67" y="590" type="line"/>
			<point x="48" y="503" type="line"/>
			<point x="86" y="498" type="line"/>
			<point x="98" y="552" type="line"/>
			<point x="212" y="552" type="line"/>
			<point x="113" y="472" type="line"/>
			<point x="141" y="449" type="line"/>
			<point x="162" y="467" type="line"/>
			<point x="205" y="473"/>
			<point x="242" y="455"/>
			<point x="242" y="413" type="curve" smooth="yes"/>
			<point x="242" y="367"/>
			<point x="197" y="352"/>
			<point x="162" y="352" type="curve" smooth="yes"/>
			<point x="110" y="352"/>
			<point x="95" y="367"/>
			<point x="88" y="383" type="curve"/>
			<point x="97" y="379"/>
			<point x="114" y="388"/>
			<point x="114" y="405" type="curve" smooth="yes"/>
			<point x="114" y="422"/>
			<point x="102" y="433"/>
			<point x="83" y="433" type="curve" smooth="yes"/>
			<point x="61" y="433"/>
			<point x="48" y="414"/>
			<point x="48" y="393" type="curve" smooth="yes"/>
			<point x="48" y="348"/>
			<point x="102" y="314"/>
			<point x="162" y="314" type="curve" smooth="yes"/>
			<point x="215" y="314"/>
			<point x="280" y="343"/>
		</contour>
		<contour>
			<point x="495" y="518" type="line"/>
			<point x="464" y="541" type="line"/>
			<point x="119" y="57" type="line"/>
			<point x="149" y="33" type="line"/>
		</contour>
		<contour>
			<point x="560" y="24" type="line"/>
			<point x="560" y="62" type="line"/>
			<point x="496" y="62" type="line"/>
			<point x="497" y="188" type="line"/>
			<point x="459" y="188" type="line"/>
			<point x="458" y="62" type="line"/>
			<point x="343" y="62" type="line"/>
			<point x="400" y="136"/>
			<point x="431" y="192"/>
			<point x="449" y="262" type="curve"/>
			<point x="412" y="270" type="line"/>
			<point x="389" y="192"/>
			<point x="354" y="139"/>
			<point x="295" y="62" type="curve"/>
			<point x="295" y="24" type="line"/>
			<point x="457" y="24" type="line"/>
			<point x="457" y="-13" type="line"/>
			<point x="496" y="-13" type="line"/>
			<point x="496" y="24" type="line"/>
		</contour>
	</outline>
</glyph>
<glyph name="questiondown" format="2">
	<advance width="600"/>
	<unicode hex="00BF"/>
	<note>
		questiondown
	</note>
	<outline>
		<contour>
			<point x="307" y="444" type="curve" smooth="yes"/>
			<point x="279" y="444"/>
			<point x="256" y="420"/>
			<point x="256" y="393" type="curve" smooth="yes"/>
			<point x="256" y="366"/>
			<point x="279" y="342"/>
			<point x="307" y="342" type="curve" smooth="yes"/>
			<point x="335" y="342"/>
			<point x="359" y="366"/>
			<point x="359" y="393" type="curve" smooth="yes"/>
			<point x="359" y="420"/>
			<point x="335" y="444"/>
		</contour>
		<contour>
			<point x="84" y="-15" type="curve" smooth="yes"/>
			<point x="83" y="-130"/>
			<point x="197" y="-172"/>
			<point x="290" y="-172" type="curve" smooth="yes"/>
			<point x="410" y="-172"/>
			<point x="506" y="-111"/>
			<point x="506" y="-22" type="curve" smooth="yes"/>
			<point x="506" y="15"/>
			<point x="474" y="39"/>
			<point x="449" y="39" type="curve" smooth="yes"/>
			<point x="423" y="39"/>
			<point x="403" y="19"/>
			<point x="403" y="-7" type="curve" smooth="yes"/>
			<point x="403" y="-26"/>
			<point x="418" y="-48"/>
			<point x="440" y="-48" type="curve" smooth="yes"/>
			<point x="445" y="-48"/>
			<point x="449" y="-47"/>
			<point x="454" y="-44" type="curve"/>
			<point x="447" y="-70"/>
			<point x="395" y="-122"/>
			<point x="290" y="-122" type="curve" smooth="yes"/>
			<point x="220" y="-122"/>
			<point x="134" y="-89"/>
			<point x="134" y="-15" type="curve" smooth="yes"/>
			<point x="134" y="36"/>
			<point x="164" y="59"/>
			<point x="225" y="90" type="curve" smooth="yes"/>
			<point x="278" y="117" type="line" smooth="yes"/>
			<point x="354" y="156"/>
			<point x="383" y="186"/>
			<point x="383" y="223" type="curve" smooth="yes"/>
			<point x="383" y="260"/>
			<point x="357" y="297"/>
			<point x="307" y="297" type="curve" smooth="yes"/>
			<point x="278" y="297"/>
			<point x="267" y="286"/>
			<point x="239" y="260" type="curve"/>
			<point x="272" y="222" type="line"/>
			<point x="285" y="234"/>
			<point x="293" y="247"/>
			<point x="307" y="247" type="curve" smooth="yes"/>
			<point x="319" y="247"/>
			<point x="333" y="240"/>
			<point x="333" y="223" type="curve" smooth="yes"/>
			<point x="333" y="206"/>
			<point x="323" y="197"/>
			<point x="251" y="158" type="curve" smooth="yes"/>
			<point x="199" y="130" type="line" smooth="yes"/>
			<point x="139" y="98"/>
			<point x="85" y="67"/>
		</contour>
	</outline>
</glyph>
<glyph name="Aacute" format="2">
	<advance width="600"/>
	<unicode hex="00C1"/>
	<note>
		Aacute
	</note>
	<outline>
		<contour>
			<point x="141" y="632" type="line"/>
			<point x="456" y="693" type="line"/>
			<point x="444" y="740" type="line"/>
			<point x="133" y="665" type="line"/>
		</contour>
		<contour>
			<point x="578" y="50" type="line"/>
			<point x="525" y="50" type="line"/>
			<point x="353" y="556" type="line"/>
			<point x="342" y="590" type="line"/>
			<point x="278" y="590"/>
			<point x="240" y="590"/>
			<point x="177" y="603" type="curve"/>
			<point x="166" y="555" type="line"/>
			<point x="197" y="547"/>
			<point x="228" y="543"/>
			<point x="258" y="541" type="curve"/>
			<point x="74" y="50" type="line"/>
			<point x="21" y="50" type="line"/>
			<point x="21" y="0" type="line"/>
			<point x="209" y="0" type="line"/>
			<point x="209" y="50" type="line"/>
			<point x="126" y="50" type="line"/>
			<point x="187" y="219" type="line"/>
			<point x="416" y="219" type="line"/>
			<point x="473" y="50" type="line"/>
			<point x="390" y="50" type="line"/>
			<point x="390" y="0" type="line"/>
			<point x="578" y="0" type="line"/>
		</contour>
		<contour>
			<point x="399" y="269" type="line"/>
			<point x="205" y="269" type="line"/>
			<point x="303" y="540" type="line"/>
			<point x="306" y="540" type="line"/>
		</contour>
	</outline>
</glyph>
<glyph name="Ecircumflex" format="2">
	<advance width="600"/>
	<unicode hex="00CA"/>
	<note>
		Ecircumflex
	</note>
	<outline>
		<contour>
			<point x="512" y="660" type="line"/>
			<point x="300" y="751" type="line"/>
			<point x="88" y="660" type="line"/>
			<point x="100" y="632" type="line"/>
			<point x="300" y="697" type="line"/>
			<point x="500" y="632" type="line"/>
		</contour>
		<contour>
			<point x="204" y="268" type="line"/>
			<point x="204" y="50" type="line"/>
			<point x="491" y="50" type="line"/>
			<point x="505" y="222" type="line"/>
			<point x="554" y="217" type="line"/>
			<point x="534" y="0" type="line"/>
			<point x="30" y="0" type="line"/>
			<point x="30" y="50" type="line"/>
			<point x="154" y="50" type="line"/>
			<point x="154" y="540" type="line"/>
			<point x="30" y="540" type="line"/>
			<point x="30" y="590" type="line"/>
			<point x="534" y="590" type="line"/>
			<point x="554" y="373" type="line"/>
			<point x="505" y="368" type="line"/>
			<point x="491" y="540" type="line"/>
			<point x="204" y="540" type="line"/>
			<point x="204" y="318" type="line"/>
			<point x="356" y="318" type="line"/>
			<point x="356" y="427" type="line"/>
			<point x="406" y="427" type="line"/>
			<point x="406" y="162" type="line"/>
			<point x="356" y="162" type="line"/>
			<point x="356" y="268" type="line"/>
		</contour>
	</outline>
</glyph>
<glyph name="Igrave" format="2">
	<advance width="600"/>
	<unicode hex="00CC"/>
	<note>
		Igrave
	</note>
	<outline>
		<contour>
			<point x="466" y="637" type="line"/>
			<point x="474" y="670" type="line"/>
			<point x="163" y="745" type="line"/>
			<point x="151" y="698" type="line"/>
		</contour>
		<contour>
			<point x="326" y="50" type="line"/>
			<point x="326" y="540" type="line"/>
			<point x="499" y="540" type="line"/>
			<point x="499" y="590" type="line"/>
			<point x="101" y="590" type="line"/>
			<point x="101" y="540" type="line"/>
			<point x="276" y="540" type="line"/>
			<point x="276" y="50" type="line"/>
			<point x="101" y="50" type="line"/>
			<point x="101" y="0" type="line"/>
			<point x="499" y="0" type="line"/>
			<point x="499" y="50" type="line"/>
		</contour>
	</outline>
</glyph>
<glyph name="Iacute" format="2">
	<advance width="600"/>
	<unicode hex="00CD"/>
	<note>
		Iacute
	</note>
	<outline>
		<contour>
			<point x="444" y="740" type="line"/>
			<point x="133" y="665" type="line"/>
			<point x="141" y="632" type="line"/>
			<point x="456" y="693" type="line"/>
		</contour>
		<contour>
			<point x="326" y="50" type="line"/>
			<point x="326" y="540" type="line"/>
			<point x="499" y="540" type="line"/>
			<point x="499" y="590" type="line"/>
			<point x="101" y="590" type="line"/>
			<point x="101" y="540" type="line"/>
			<point x="276" y="540" type="line"/>
			<point x="276" y="50" type="line"/>
			<point x="101" y="50" type="line"/>
			<point x="101" y="0" type="line"/>
			<point x="499" y="0" type="line"/>
			<point x="499" y="50" type="line"/>
		</contour>
	</outline>
</glyph>
<glyph name="Icircumflex" format="2">
	<advance width="600"/>
	<unicode hex="00CE"/>
	<note>
		Icircumflex
	</note>
	<outline>
		<contour>
			<point x="513" y="660" type="line"/>
			<point x="301" y="751" type="line"/>
			<point x="89" y="660" type="line"/>
			<point x="101" y="632" type="line"/>
			<point x="301" y="697" type="line"/>
			<point x="501" y="632" type="line"/>
		</contour>
		<contour>
			<point x="326" y="50" type="line"/>
			<point x="326" y="540" type="line"/>
			<point x="499" y="540" type="line"/>
			<point x="499" y="590" type="line"/>
			<point x="101" y="590" type="line"/>
			<point x="101" y="540" type="line"/>
			<point x="276" y="540" type="line"/>
			<point x="276" y="50" type="line"/>
			<point x="101" y="50" type="line"/>
			<point x="101" y="0" type="line"/>
			<point x="499" y="0" type="line"/>
			<point x="499" y="50" type="line"/>
		</contour>
	</outline>
</glyph>
<glyph name="multiply" format="2">
	<advance width="600"/>
	<unicode hex="00D7"/>
	<note>
		multiply
	</note>
	<outline>
		<contour>
			<point x="268" y="215" type="line"/>
			<point x="134" y="81" type="line"/>
			<point x="169" y="45" type="line"/>
			<point x="304" y="180" type="line"/>
			<point x="438" y="45" type="line"/>
			<point x="473" y="81" type="line"/>
			<point x="339" y="215" type="line"/>
			<point x="473" y="349" type="line"/>
			<point x="438" y="385" type="line"/>
			<point x="304" y="251" type="line"/>
			<point x="169" y="385" type="line"/>
			<point x="134" y="349" type="line"/>
		</contour>
	</outline>
</glyph>
<glyph name="Oslash" format="2">
	<advance width="600"/>
	<unicode hex="00D8"/>
	<note>
		Oslash
	</note>
	<outline>
		<contour>
			<point x="488" y="518" type="curve"/>
			<point x="527" y="573" type="line"/>
			<point x="489" y="603" type="line"/>
			<point x="452" y="551" type="line"/>
			<point x="407" y="584"/>
			<point x="353" y="603"/>
			<point x="297" y="603" type="curve" smooth="yes"/>
			<point x="161" y="603"/>
			<point x="29" y="476"/>
			<point x="29" y="290" type="curve" smooth="yes"/>
			<point x="29" y="198"/>
			<point x="61" y="123"/>
			<point x="110" y="71" type="curve"/>
			<point x="70" y="15" type="line"/>
			<point x="108" y="-15" type="line"/>
			<point x="146" y="38" type="line"/>
			<point x="191" y="5"/>
			<point x="243" y="-13"/>
			<point x="297" y="-13" type="curve" smooth="yes"/>
			<point x="442" y="-13"/>
			<point x="574" y="104"/>
			<point x="574" y="290" type="curve" smooth="yes"/>
			<point x="574" y="384"/>
			<point x="540" y="463"/>
		</contour>
		<contour>
			<point x="79" y="290" type="curve" smooth="yes"/>
			<point x="79" y="448"/>
			<point x="188" y="553"/>
			<point x="296" y="552" type="curve" smooth="yes"/>
			<point x="341" y="552"/>
			<point x="385" y="536"/>
			<point x="422" y="509" type="curve"/>
			<point x="140" y="113" type="line"/>
			<point x="103" y="156"/>
			<point x="79" y="216"/>
		</contour>
		<contour>
			<point x="296" y="39" type="curve" smooth="yes"/>
			<point x="254" y="39"/>
			<point x="212" y="53"/>
			<point x="176" y="80" type="curve"/>
			<point x="458" y="476" type="line"/>
			<point x="498" y="430"/>
			<point x="523" y="367"/>
			<point x="523" y="290" type="curve" smooth="yes"/>
			<point x="522" y="132"/>
			<point x="414" y="39"/>
		</contour>
	</outline>
</glyph>
<glyph name="Ugrave" format="2">
	<advance width="600"/>
	<unicode hex="00D9"/>
	<note>
		Ugrave
	</note>
	<outline>
		<contour>
			<point x="464" y="637" type="line"/>
			<point x="472" y="670" type="line"/>
			<point x="161" y="745" type="line"/>
			<point x="149" y="698" type="line"/>
		</contour>
		<contour>
			<point x="28" y="590" type="line"/>
			<point x="28" y="540" type="line"/>
			<point x="99" y="540" type="line"/>
			<point x="99" y="212" type="line" smooth="yes"/>
			<point x="99" y="49"/>
			<point x="197" y="-13"/>
			<point x="300" y="-13" type="curve" smooth="yes"/>
			<point x="403" y="-13"/>
			<point x="501" y="48"/>
			<point x="501" y="212" type="curve" smooth="yes"/>
			<point x="501" y="540" type="line"/>
			<point x="572" y="540" type="line"/>
			<point x="572" y="590" type="line"/>
			<point x="357" y="590" type="line"/>
			<point x="357" y="540" type="line"/>
			<point x="451" y="540" type="line"/>
			<point x="451" y="222" type="line" smooth="yes"/>
			<point x="451" y="82"/>
			<point x="380" y="37"/>
			<point x="300" y="37" type="curve" smooth="yes"/>
			<point x="220" y="37"/>
			<point x="149" y="82"/>
			<point x="149" y="222" type="curve" smooth="yes"/>
			<point x="149" y="540" type="line"/>
			<point x="243" y="540" type="line"/>
			<point x="243" y="590" type="line"/>
		</contour>
	</outline>
</glyph>
<glyph name="Uacute" format="2">
	<advance width="600"/>
	<unicode hex="00DA"/>
	<note>
		Uacute
	</note>
	<outline>
		<contour>
			<point x="442" y="740" type="line"/>
			<point x="131" y="665" type="line"/>
			<point x="139" y="632" type="line"/>
			<point x="454" y="693" type="line"/>
		</contour>
		<contour>
			<point x="28" y="590" type="line"/>
			<point x="28" y="540" type="line"/>
			<point x="99" y="540" type="line"/>
			<point x="99" y="212" type="line" smooth="yes"/>
			<point x="99" y="49"/>
			<point x="197" y="-13"/>
			<point x="300" y="-13" type="curve" smooth="yes"/>
			<point x="403" y="-13"/>
			<point x="501" y="48"/>
			<point x="501" y="212" type="curve" smooth="yes"/>
			<point x="501" y="540" type="line"/>
			<point x="572" y="540" type="line"/>
			<point x="572" y="590" type="line"/>
			<point x="357" y="590" type="line"/>
			<point x="357" y="540" type="line"/>
			<point x="451" y="540" type="line"/>
			<point x="451" y="222" type="line" smooth="yes"/>
			<point x="451" y="82"/>
			<point x="380" y="37"/>
			<point x="300" y="37" type="curve" smooth="yes"/>
			<point x="220" y="37"/>
			<point x="149" y="82"/>
			<point x="149" y="222" type="curve" smooth="yes"/>
			<point x="149" y="540" type="line"/>
			<point x="243" y="540" type="line"/>
			<point x="243" y="590" type="line"/>
		</contour>
	</outline>
</glyph>
<glyph name="Thorn" format="2">
	<advance width="600"/>
	<unicode hex="00DE"/>
	<note>
		Thorn
	</note>
	<outline>
		<contour>
			<point x="339" y="463" type="curve" smooth="yes"/>
			<point x="190" y="463" type="line"/>
			<point x="190" y="590" type="line"/>
			<point x="38" y="590" type="line"/>
			<point x="38" y="540" type="line"/>
			<point x="140" y="540" type="line"/>
			<point x="140" y="50" type="line"/>
			<point x="38" y="50" type="line"/>
			<point x="38" y="0" type="line"/>
			<point x="291" y="0" type="line"/>
			<point x="291" y="50" type="line"/>
			<point x="190" y="50" type="line"/>
			<point x="190" y="128" type="line"/>
			<point x="339" y="129" type="line" smooth="yes"/>
			<point x="461" y="130"/>
			<point x="546" y="191"/>
			<point x="546" y="296" type="curve" smooth="yes"/>
			<point x="546" y="401"/>
			<point x="461" y="463"/>
		</contour>
		<contour>
			<point x="339" y="178" type="curve" smooth="yes"/>
			<point x="190" y="178" type="line"/>
			<point x="190" y="414" type="line"/>
			<point x="339" y="414" type="line" smooth="yes"/>
			<point x="442" y="414"/>
			<point x="496" y="358"/>
			<point x="496" y="296" type="curve" smooth="yes"/>
			<point x="496" y="234"/>
			<point x="442" y="178"/>
		</contour>
	</outline>
</glyph>
<glyph name="germandbls" format="2">
	<advance width="600"/>
	<unicode hex="00DF"/>
	<note>
		germandbls
	</note>
	<outline>
		<contour>
			<point x="374" y="-13" type="curve" smooth="yes"/>
			<point x="488" y="-13"/>
			<point x="544" y="76"/>
			<point x="544" y="162" type="curve" smooth="yes"/>
			<point x="544" y="285"/>
			<point x="441" y="335"/>
			<point x="416" y="333" type="curve"/>
			<point x="436" y="340"/>
			<point x="483" y="370"/>
			<point x="483" y="447" type="curve" smooth="yes"/>
			<point x="483" y="536"/>
			<point x="412" y="603"/>
			<point x="324" y="603" type="curve" smooth="yes"/>
			<point x="220" y="603"/>
			<point x="112" y="530"/>
			<point x="112" y="365" type="curve" smooth="yes"/>
			<point x="112" y="50" type="line"/>
			<point x="20" y="50" type="line"/>
			<point x="20" y="0" type="line"/>
			<point x="210" y="0" type="line"/>
			<point x="210" y="50" type="line"/>
			<point x="162" y="50" type="line"/>
			<point x="162" y="365" type="line" smooth="yes"/>
			<point x="162" y="485"/>
			<point x="230" y="553"/>
			<point x="324" y="553" type="curve" smooth="yes"/>
			<point x="376" y="553"/>
			<point x="433" y="517"/>
			<point x="433" y="447" type="curve" smooth="yes"/>
			<point x="433" y="390"/>
			<point x="394" y="354"/>
			<point x="325" y="354" type="curve" smooth="yes"/>
			<point x="228" y="354" type="line"/>
			<point x="228" y="304" type="line"/>
			<point x="336" y="304" type="line" smooth="yes"/>
			<point x="427" y="304"/>
			<point x="494" y="245"/>
			<point x="494" y="162" type="curve" smooth="yes"/>
			<point x="494" y="89"/>
			<point x="444" y="37"/>
			<point x="374" y="37" type="curve" smooth="yes"/>
			<point x="294" y="37"/>
			<point x="256" y="92"/>
			<point x="256" y="136" type="curve"/>
			<point x="283" y="119"/>
			<point x="317" y="146"/>
			<point x="317" y="175" type="curve" smooth="yes"/>
			<point x="317" y="203"/>
			<point x="296" y="221"/>
			<point x="266" y="221" type="curve" smooth="yes"/>
			<point x="238" y="221"/>
			<point x="209" y="188"/>
			<point x="209" y="139" type="curve" smooth="yes"/>
			<point x="209" y="57"/>
			<point x="275" y="-13"/>
		</contour>
	</outline>
</glyph>
<glyph name="ccedilla" format="2">
	<advance width="600"/>
	<unicode hex="00E7"/>
	<note>
		ccedilla
	</note>
	<outline>
		<contour>
			<point x="553" y="203" type="curve"/>
			<point x="505" y="208" type="line"/>
			<point x="497" y="107"/>
			<point x="410" y="38"/>
			<point x="304" y="38" type="curve" smooth="yes"/>
			<point x="188" y="38"/>
			<point x="109" y="117"/>
			<point x="109" y="219" type="curve" smooth="yes"/>
			<point x="109" y="327"/>
			<point x="175" y="393"/>
			<point x="282" y="393" type="curve" smooth="yes"/>
			<point x="360" y="393"/>
			<point x="407" y="365"/>
			<point x="420" y="325" type="curve"/>
			<point x="390" y="340"/>
			<point x="353" y="318"/>
			<point x="353" y="288" type="curve" smooth="yes"/>
			<point x="353" y="255"/>
			<point x="377" y="233"/>
			<point x="410" y="233" type="curve" smooth="yes"/>
			<point x="444" y="233"/>
			<point x="471" y="260"/>
			<point x="471" y="305" type="curve" smooth="yes"/>
			<point x="471" y="393"/>
			<point x="374" y="443"/>
			<point x="282" y="443" type="curve" smooth="yes"/>
			<point x="145" y="443"/>
			<point x="59" y="354"/>
			<point x="59" y="219" type="curve" smooth="yes"/>
			<point x="59" y="105"/>
			<point x="135" y="3"/>
			<point x="273" y="-11" type="curve"/>
			<point x="273" y="-71" type="line"/>
			<point x="288" y="-72" type="line" smooth="yes"/>
			<point x="325" y="-74"/>
			<point x="350" y="-82"/>
			<point x="350" y="-102" type="curve" smooth="yes"/>
			<point x="350" y="-128"/>
			<point x="292" y="-136"/>
			<point x="257" y="-136" type="curve" smooth="yes"/>
			<point x="218" y="-136"/>
			<point x="182" y="-116"/>
			<point x="177" y="-96" type="curve"/>
			<point x="199" y="-104"/>
			<point x="207" y="-85"/>
			<point x="207" y="-70" type="curve" smooth="yes"/>
			<point x="207" y="-54"/>
			<point x="190" y="-44"/>
			<point x="176" y="-44" type="curve" smooth="yes"/>
			<point x="154" y="-44"/>
			<point x="138" y="-60"/>
			<point x="138" y="-92" type="curve" smooth="yes"/>
			<point x="138" y="-128"/>
			<point x="175" y="-173"/>
			<point x="257" y="-173" type="curve" smooth="yes"/>
			<point x="315" y="-173"/>
			<point x="393" y="-156"/>
			<point x="393" y="-102" type="curve" smooth="yes"/>
			<point x="393" y="-60"/>
			<point x="357" y="-44"/>
			<point x="315" y="-37" type="curve"/>
			<point x="315" y="-12" type="line"/>
			<point x="434" y="-7"/>
			<point x="545" y="70"/>
		</contour>
	</outline>
</glyph>
<glyph name="eacute" format="2">
	<advance width="600"/>
	<unicode hex="00E9"/>
	<guideline x="542" y="580" angle="0"/>
	<note>
		eacute
	</note>
	<outline>
		<contour>
			<point x="433" y="580" type="line"/>
			<point x="122" y="505" type="line"/>
			<point x="130" y="472" type="line"/>
			<point x="445" y="533" type="line"/>
		</contour>
		<contour>
			<point x="66" y="223" type="curve" smooth="yes"/>
			<point x="66" y="88"/>
			<point x="171" y="-12"/>
			<point x="289" y="-12" type="curve" smooth="yes"/>
			<point x="379" y="-12"/>
			<point x="466" y="25"/>
			<point x="529" y="137" type="curve"/>
			<point x="486" y="162" type="line"/>
			<point x="444" y="78"/>
			<point x="373" y="38"/>
			<point x="289" y="38" type="curve" smooth="yes"/>
			<point x="192" y="38"/>
			<point x="116" y="119"/>
			<point x="116" y="217" type="curve"/>
			<point x="501" y="217" type="line"/>
			<point x="501" y="237" type="line" smooth="yes"/>
			<point x="501" y="363"/>
			<point x="398" y="442"/>
			<point x="289" y="442" type="curve" smooth="yes"/>
			<point x="167" y="442"/>
			<point x="66" y="377"/>
		</contour>
		<contour>
			<point x="448" y="267" type="curve"/>
			<point x="119" y="267" type="line"/>
			<point x="129" y="342"/>
			<point x="188" y="392"/>
			<point x="289" y="392" type="curve" smooth="yes"/>
			<point x="372" y="392"/>
			<point x="441" y="332"/>
		</contour>
	</outline>
</glyph>
<glyph name="icircumflex" format="2">
	<advance width="600"/>
	<unicode hex="00EE"/>
	<note>
		icircumflex
	</note>
	<outline>
		<contour>
			<point x="518" y="500" type="line"/>
			<point x="306" y="591" type="line"/>
			<point x="94" y="500" type="line"/>
			<point x="106" y="472" type="line"/>
			<point x="306" y="537" type="line"/>
			<point x="506" y="472" type="line"/>
		</contour>
		<contour>
			<point x="509" y="50" type="line"/>
			<point x="331" y="50" type="line"/>
			<point x="331" y="430" type="line"/>
			<point x="281" y="430" type="line"/>
			<point x="281" y="50" type="line"/>
			<point x="90" y="50" type="line"/>
			<point x="90" y="0" type="line"/>
			<point x="509" y="0" type="line"/>
		</contour>
	</outline>
</glyph>
<glyph name="ntilde" format="2">
	<advance width="600"/>
	<unicode hex="00F1"/>
	<note>
		ntilde
	</note>
	<outline>
		<contour>
			<point x="328" y="562" type="curve"/>
			<point x="305" y="581"/>
			<point x="284" y="603"/>
			<point x="245" y="603" type="curve" smooth="yes"/>
			<point x="206" y="603"/>
			<point x="174" y="582"/>
			<point x="124" y="522" type="curve"/>
			<point x="159" y="492" type="line"/>
			<point x="199" y="540"/>
			<point x="223" y="558"/>
			<point x="245" y="558" type="curve" smooth="yes"/>
			<point x="267" y="558"/>
			<point x="281" y="542"/>
			<point x="299" y="526" type="curve"/>
			<point x="322" y="507"/>
			<point x="343" y="485"/>
			<point x="382" y="485" type="curve" smooth="yes"/>
			<point x="421" y="485"/>
			<point x="453" y="506"/>
			<point x="503" y="566" type="curve"/>
			<point x="468" y="596" type="line"/>
			<point x="428" y="548"/>
			<point x="404" y="530"/>
			<point x="382" y="530" type="curve" smooth="yes"/>
			<point x="360" y="530"/>
			<point x="346" y="546"/>
		</contour>
		<contour>
			<point x="48" y="379" type="curve" smooth="yes"/>
			<point x="37" y="363" type="line"/>
			<point x="80" y="339" type="line"/>
			<point x="110" y="381"/>
			<point x="118" y="393"/>
			<point x="129" y="393" type="curve" smooth="yes"/>
			<point x="141" y="393"/>
			<point x="147" y="385"/>
			<point x="147" y="358" type="curve" smooth="yes"/>
			<point x="147" y="50" type="line"/>
			<point x="70" y="50" type="line"/>
			<point x="70" y="0" type="line"/>
			<point x="274" y="0" type="line"/>
			<point x="274" y="50" type="line"/>
			<point x="197" y="50" type="line"/>
			<point x="197" y="252" type="line"/>
			<point x="285" y="343"/>
			<point x="310" y="393"/>
			<point x="365" y="393" type="curve" smooth="yes"/>
			<point x="400" y="393"/>
			<point x="445" y="378"/>
			<point x="445" y="316" type="curve" smooth="yes"/>
			<point x="445" y="50" type="line"/>
			<point x="368" y="50" type="line"/>
			<point x="368" y="0" type="line"/>
			<point x="571" y="0" type="line"/>
			<point x="571" y="50" type="line"/>
			<point x="495" y="50" type="line"/>
			<point x="495" y="316" type="line" smooth="yes"/>
			<point x="495" y="418"/>
			<point x="416" y="443"/>
			<point x="365" y="443" type="curve" smooth="yes"/>
			<point x="303" y="443"/>
			<point x="266" y="398"/>
			<point x="197" y="321" type="curve"/>
			<point x="197" y="351" type="line"/>
			<point x="200" y="425"/>
			<point x="165" y="443"/>
			<point x="129" y="443" type="curve" smooth="yes"/>
			<point x="97" y="443"/>
			<point x="78" y="423"/>
		</contour>
	</outline>
</glyph>
<glyph name="oacute" format="2">
	<advance width="600"/>
	<unicode hex="00F3"/>
	<note>
		oacute
	</note>
	<outline>
		<contour>
			<point x="433" y="580" type="line"/>
			<point x="122" y="505" type="line"/>
			<point x="130" y="472" type="line"/>
			<point x="445" y="533" type="line"/>
		</contour>
		<contour>
			<point x="300" y="-13" type="curve" smooth="yes"/>
			<point x="430" y="-13"/>
			<point x="537" y="89"/>
			<point x="537" y="215" type="curve" smooth="yes"/>
			<point x="537" y="341"/>
			<point x="430" y="443"/>
			<point x="300" y="443" type="curve" smooth="yes"/>
			<point x="169" y="443"/>
			<point x="62" y="341"/>
			<point x="62" y="215" type="curve" smooth="yes"/>
			<point x="62" y="89"/>
			<point x="169" y="-13"/>
		</contour>
		<contour>
			<point x="299" y="37" type="curve" smooth="yes"/>
			<point x="196" y="37"/>
			<point x="112" y="117"/>
			<point x="112" y="215" type="curve" smooth="yes"/>
			<point x="112" y="313"/>
			<point x="196" y="394"/>
			<point x="299" y="393" type="curve" smooth="yes"/>
			<point x="402" y="392"/>
			<point x="488" y="313"/>
			<point x="487" y="215" type="curve" smooth="yes"/>
			<point x="486" y="117"/>
			<point x="402" y="37"/>
		</contour>
	</outline>
</glyph>
<glyph name="otilde" format="2">
	<advance width="600"/>
	<unicode hex="00F5"/>
	<note>
		otilde
	</note>
	<outline>
		<contour>
			<point x="315" y="562" type="curve"/>
			<point x="292" y="581"/>
			<point x="271" y="603"/>
			<point x="232" y="603" type="curve" smooth="yes"/>
			<point x="193" y="603"/>
			<point x="161" y="582"/>
			<point x="111" y="522" type="curve"/>
			<point x="146" y="492" type="line"/>
			<point x="186" y="540"/>
			<point x="210" y="558"/>
			<point x="232" y="558" type="curve" smooth="yes"/>
			<point x="254" y="558"/>
			<point x="268" y="542"/>
			<point x="286" y="526" type="curve"/>
			<point x="309" y="507"/>
			<point x="330" y="485"/>
			<point x="369" y="485" type="curve" smooth="yes"/>
			<point x="408" y="485"/>
			<point x="440" y="506"/>
			<point x="490" y="566" type="curve"/>
			<point x="455" y="596" type="line"/>
			<point x="415" y="548"/>
			<point x="391" y="530"/>
			<point x="369" y="530" type="curve" smooth="yes"/>
			<point x="347" y="530"/>
			<point x="333" y="546"/>
		</contour>
		<contour>
			<point x="300" y="-13" type="curve" smooth="yes"/>
			<point x="430" y="-13"/>
			<point x="537" y="89"/>
			<point x="537" y="215" type="curve" smooth="yes"/>
			<point x="537" y="341"/>
			<point x="430" y="443"/>
			<point x="300" y="443" type="curve" smooth="yes"/>
			<point x="169" y="443"/>
			<point x="62" y="341"/>
			<point x="62" y="215" type="curve" smooth="yes"/>
			<point x="62" y="89"/>
			<point x="169" y="-13"/>
		</contour>
		<contour>
			<point x="299" y="37" type="curve" smooth="yes"/>
			<point x="196" y="37"/>
			<point x="112" y="117"/>
			<point x="112" y="215" type="curve" smooth="yes"/>
			<point x="112" y="313"/>
			<point x="196" y="394"/>
			<point x="299" y="393" type="curve" smooth="yes"/>
			<point x="402" y="392"/>
			<point x="488" y="313"/>
			<point x="487" y="215" type="curve" smooth="yes"/>
			<point x="486" y="117"/>
			<point x="402" y="37"/>
		</contour>
	</outline>
</glyph>
<glyph name="oslash" format="2">
	<advance width="600"/>
	<unicode hex="00F8"/>
	<note>
		oslash
	</note>
	<outline>
		<contour>
			<point x="436" y="400" type="curve"/>
			<point x="532" y="568" type="line"/>
			<point x="489" y="594" type="line"/>
			<point x="391" y="424" type="line"/>
			<point x="363" y="436"/>
			<point x="332" y="443"/>
			<point x="300" y="443" type="curve" smooth="yes"/>
			<point x="174" y="443"/>
			<point x="62" y="341"/>
			<point x="62" y="215" type="curve" smooth="yes"/>
			<point x="62" y="138"/>
			<point x="103" y="71"/>
			<point x="164" y="29" type="curve"/>
			<point x="68" y="-138" type="line"/>
			<point x="111" y="-164" type="line"/>
			<point x="208" y="5" type="line"/>
			<point x="237" y="-6"/>
			<point x="268" y="-13"/>
			<point x="300" y="-13" type="curve" smooth="yes"/>
			<point x="425" y="-13"/>
			<point x="537" y="89"/>
			<point x="537" y="215" type="curve" smooth="yes"/>
			<point x="537" y="291"/>
			<point x="496" y="359"/>
		</contour>
		<contour>
			<point x="112" y="214" type="curve" smooth="yes"/>
			<point x="112" y="312"/>
			<point x="201" y="392"/>
			<point x="299" y="391" type="curve" smooth="yes"/>
			<point x="322" y="391"/>
			<point x="344" y="386"/>
			<point x="365" y="379" type="curve"/>
			<point x="189" y="73" type="line"/>
			<point x="143" y="105"/>
			<point x="112" y="156"/>
		</contour>
		<contour>
			<point x="299" y="38" type="curve" smooth="yes"/>
			<point x="276" y="38"/>
			<point x="254" y="42"/>
			<point x="234" y="50" type="curve"/>
			<point x="410" y="355" type="line"/>
			<point x="455" y="323"/>
			<point x="487" y="272"/>
			<point x="486" y="214" type="curve" smooth="yes"/>
			<point x="485" y="116"/>
			<point x="397" y="38"/>
		</contour>
	</outline>
</glyph>
<glyph name="dotlessi" format="2">
	<advance width="600"/>
	<unicode hex="0131"/>
	<note>
		dotlessi
	</note>
	<outline>
		<contour>
			<point x="509" y="50" type="line"/>
			<point x="331" y="50" type="line"/>
			<point x="331" y="430" type="line"/>
			<point x="281" y="430" type="line"/>
			<point x="281" y="50" type="line"/>
			<point x="90" y="50" type="line"/>
			<point x="90" y="0" type="line"/>
			<point x="509" y="0" type="line"/>
		</contour>
	</outline>
</glyph>
<glyph name="lslash" format="2">
	<advance width="600"/>
	<unicode hex="0142"/>
	<note>
		lslash
	</note>
	<outline>
		<contour>
			<point x="94" y="50" type="line"/>
			<point x="94" y="0" type="line"/>
			<point x="513" y="0" type="line"/>
			<point x="513" y="50" type="line"/>
			<point x="329" y="50" type="line"/>
			<point x="329" y="280" type="line"/>
			<point x="513" y="368" type="line"/>
			<point x="513" y="422" type="line"/>
			<point x="329" y="334" type="line"/>
			<point x="329" y="590" type="line"/>
			<point x="94" y="590" type="line"/>
			<point x="94" y="540" type="line"/>
			<point x="278" y="540" type="line"/>
			<point x="278" y="310" type="line"/>
			<point x="94" y="222" type="line"/>
			<point x="94" y="168" type="line"/>
			<point x="278" y="256" type="line"/>
			<point x="278" y="50" type="line"/>
		</contour>
	</outline>
</glyph>
<glyph name="eng" format="2">
	<advance width="600"/>
	<unicode hex="014B"/>
	<note>
		eng
	</note>
	<outline>
		<contour>
			<point x="445" y="316" type="curve" smooth="yes"/>
			<point x="445" y="26" type="line" smooth="yes"/>
			<point x="445" y="-77"/>
			<point x="428" y="-122"/>
			<point x="380" y="-129" type="curve"/>
			<point x="389" y="-121"/>
			<point x="393" y="-110"/>
			<point x="393" y="-97" type="curve" smooth="yes"/>
			<point x="393" y="-84"/>
			<point x="380" y="-60"/>
			<point x="354" y="-60" type="curve" smooth="yes"/>
			<point x="323" y="-60"/>
			<point x="304" y="-77"/>
			<point x="304" y="-114" type="curve" smooth="yes"/>
			<point x="304" y="-147"/>
			<point x="333" y="-173"/>
			<point x="372" y="-173" type="curve" smooth="yes"/>
			<point x="468" y="-173"/>
			<point x="495" y="-107"/>
			<point x="495" y="26" type="curve" smooth="yes"/>
			<point x="495" y="316" type="line" smooth="yes"/>
			<point x="495" y="408"/>
			<point x="423" y="443"/>
			<point x="365" y="443" type="curve" smooth="yes"/>
			<point x="300" y="443"/>
			<point x="266" y="402"/>
			<point x="197" y="321" type="curve"/>
			<point x="197" y="351" type="line"/>
			<point x="200" y="425"/>
			<point x="165" y="443"/>
			<point x="129" y="443" type="curve" smooth="yes"/>
			<point x="97" y="443"/>
			<point x="78" y="423"/>
			<point x="48" y="379" type="curve" smooth="yes"/>
			<point x="37" y="363" type="line"/>
			<point x="80" y="339" type="line"/>
			<point x="110" y="381"/>
			<point x="118" y="393"/>
			<point x="129" y="393" type="curve" smooth="yes"/>
			<point x="141" y="393"/>
			<point x="147" y="385"/>
			<point x="147" y="358" type="curve" smooth="yes"/>
			<point x="147" y="50" type="line"/>
			<point x="70" y="50" type="line"/>
			<point x="70" y="0" type="line"/>
			<point x="274" y="0" type="line"/>
			<point x="274" y="50" type="line"/>
			<point x="197" y="50" type="line"/>
			<point x="197" y="252" type="line"/>
			<point x="285" y="347"/>
			<point x="314" y="394"/>
			<point x="365" y="394" type="curve" smooth="yes"/>
			<point x="414" y="394"/>
			<point x="445" y="368"/>
		</contour>
	</outline>
</glyph>
<glyph name="OE" format="2">
	<advance width="600"/>
	<unicode hex="0152"/>
	<note>
		OE
	</note>
	<outline>
		<contour>
			<point x="537" y="102" type="line"/>
			<point x="533" y="50" type="line"/>
			<point x="430" y="50" type="line"/>
			<point x="350" y="48" type="line"/>
			<point x="350" y="268" type="line"/>
			<point x="448" y="268" type="line"/>
			<point x="448" y="182" type="line"/>
			<point x="497" y="182" type="line"/>
			<point x="497" y="407" type="line"/>
			<point x="448" y="407" type="line"/>
			<point x="448" y="318" type="line"/>
			<point x="350" y="318" type="line"/>
			<point x="350" y="542" type="line"/>
			<point x="430" y="540" type="line"/>
			<point x="533" y="540" type="line"/>
			<point x="537" y="488" type="line"/>
			<point x="585" y="493" type="line"/>
			<point x="576" y="590" type="line"/>
			<point x="564" y="590" type="line"/>
			<point x="465" y="590" type="line" smooth="yes"/>
			<point x="420" y="590"/>
			<point x="344" y="593"/>
			<point x="299" y="593" type="curve" smooth="yes"/>
			<point x="144" y="593"/>
			<point x="22" y="478"/>
			<point x="22" y="292" type="curve" smooth="yes"/>
			<point x="22" y="106"/>
			<point x="144" y="-4"/>
			<point x="299" y="-2" type="curve" smooth="yes"/>
			<point x="463" y="0" type="line"/>
			<point x="576" y="0" type="line"/>
			<point x="585" y="97" type="line"/>
		</contour>
		<contour>
			<point x="73" y="292" type="curve" smooth="yes"/>
			<point x="72" y="450"/>
			<point x="172" y="543"/>
			<point x="300" y="543" type="curve"/>
			<point x="300" y="48" type="line"/>
			<point x="172" y="48"/>
			<point x="74" y="134"/>
		</contour>
	</outline>
</glyph>
<glyph name="oe" format="2">
	<advance width="600"/>
	<unicode hex="0153"/>
	<note>
		oe
	</note>
	<outline>
		<contour>
			<point x="6" y="215" type="curve" smooth="yes"/>
			<point x="6" y="89"/>
			<point x="68" y="-13"/>
			<point x="174" y="-13" type="curve" smooth="yes"/>
			<point x="243" y="-13"/>
			<point x="288" y="20"/>
			<point x="312" y="82" type="curve"/>
			<point x="336" y="25"/>
			<point x="384" y="-13"/>
			<point x="444" y="-13" type="curve" smooth="yes"/>
			<point x="508" y="-13"/>
			<point x="591" y="31"/>
			<point x="591" y="149" type="curve"/>
			<point x="546" y="157" type="line"/>
			<point x="539" y="72"/>
			<point x="502" y="37"/>
			<point x="444" y="37" type="curve" smooth="yes"/>
			<point x="381" y="37"/>
			<point x="335" y="119"/>
			<point x="335" y="217" type="curve"/>
			<point x="591" y="217" type="line"/>
			<point x="591" y="237" type="line" smooth="yes"/>
			<point x="591" y="346"/>
			<point x="550" y="443"/>
			<point x="444" y="443" type="curve" smooth="yes"/>
			<point x="381" y="443"/>
			<point x="334" y="403"/>
			<point x="310" y="350" type="curve"/>
			<point x="286" y="406"/>
			<point x="242" y="443"/>
			<point x="174" y="443" type="curve" smooth="yes"/>
			<point x="68" y="443"/>
			<point x="6" y="341"/>
		</contour>
		<contour>
			<point x="56" y="215" type="curve" smooth="yes"/>
			<point x="56" y="313"/>
			<point x="95" y="394"/>
			<point x="173" y="393" type="curve" smooth="yes"/>
			<point x="251" y="392"/>
			<point x="291" y="313"/>
			<point x="290" y="215" type="curve" smooth="yes"/>
			<point x="289" y="117"/>
			<point x="251" y="37"/>
			<point x="173" y="37" type="curve" smooth="yes"/>
			<point x="95" y="37"/>
			<point x="56" y="117"/>
		</contour>
		<contour>
			<point x="540" y="266" type="curve"/>
			<point x="338" y="267" type="line"/>
			<point x="344" y="334"/>
			<point x="376" y="393"/>
			<point x="444" y="393" type="curve" smooth="yes"/>
			<point x="522" y="393"/>
			<point x="534" y="322"/>
		</contour>
	</outline>
</glyph>
<glyph name="scaron" format="2">
	<advance width="600"/>
	<unicode hex="0161"/>
	<note>
		scaron
	</note>
	<outline>
		<contour>
			<point x="76" y="563" type="line"/>
			<point x="288" y="472" type="line"/>
			<point x="500" y="563" type="line"/>
			<point x="488" y="591" type="line"/>
			<point x="288" y="526" type="line"/>
			<point x="88" y="591" type="line"/>
		</contour>
		<contour>
			<point x="287" y="-12" type="curve" smooth="yes"/>
			<point x="409" y="-12"/>
			<point x="504" y="29"/>
			<point x="504" y="115" type="curve" smooth="yes"/>
			<point x="504" y="189"/>
			<point x="452" y="227"/>
			<point x="331" y="235" type="curve" smooth="yes"/>
			<point x="268" y="239" type="line" smooth="yes"/>
			<point x="177" y="245"/>
			<point x="141" y="265"/>
			<point x="141" y="313" type="curve" smooth="yes"/>
			<point x="141" y="353"/>
			<point x="181" y="397"/>
			<point x="297" y="397" type="curve" smooth="yes"/>
			<point x="362" y="397"/>
			<point x="403" y="380"/>
			<point x="424" y="358" type="curve"/>
			<point x="402" y="354"/>
			<point x="388" y="340"/>
			<point x="388" y="314" type="curve" smooth="yes"/>
			<point x="388" y="289"/>
			<point x="409" y="271"/>
			<point x="438" y="271" type="curve" smooth="yes"/>
			<point x="466" y="271"/>
			<point x="490" y="291"/>
			<point x="490" y="328" type="curve" smooth="yes"/>
			<point x="490" y="395"/>
			<point x="408" y="442"/>
			<point x="298" y="442" type="curve" smooth="yes"/>
			<point x="156" y="442"/>
			<point x="90" y="376"/>
			<point x="90" y="312" type="curve" smooth="yes"/>
			<point x="90" y="239"/>
			<point x="129" y="200"/>
			<point x="266" y="191" type="curve" smooth="yes"/>
			<point x="325" y="187" type="line" smooth="yes"/>
			<point x="423" y="180"/>
			<point x="450" y="152"/>
			<point x="450" y="113" type="curve" smooth="yes"/>
			<point x="450" y="63"/>
			<point x="394" y="33"/>
			<point x="286" y="33" type="curve" smooth="yes"/>
			<point x="199" y="33"/>
			<point x="167" y="54"/>
			<point x="146" y="76" type="curve"/>
			<point x="168" y="80"/>
			<point x="182" y="94"/>
			<point x="182" y="120" type="curve" smooth="yes"/>
			<point x="182" y="145"/>
			<point x="161" y="163"/>
			<point x="132" y="163" type="curve" smooth="yes"/>
			<point x="104" y="163"/>
			<point x="80" y="143"/>
			<point x="80" y="106" type="curve" smooth="yes"/>
			<point x="80" y="39"/>
			<point x="163" y="-12"/>
		</contour>
	</outline>
</glyph>
<glyph name="Zcaron" format="2">
	<advance width="600"/>
	<unicode hex="017D"/>
	<note>
		Zcaron
	</note>
	<outline>
		<contour>
			<point x="98" y="722" type="line"/>
			<point x="310" y="631" type="line"/>
			<point x="522" y="722" type="line"/>
			<point x="510" y="750" type="line"/>
			<point x="310" y="685" type="line"/>
			<point x="110" y="750" type="line"/>
		</contour>
		<contour>
			<point x="117" y="298" type="line"/>
			<point x="67" y="303" type="line"/>
			<point x="91" y="590" type="line"/>
			<point x="520" y="590" type="line"/>
			<point x="520" y="540" type="line"/>
			<point x="149" y="50" type="line"/>
			<point x="464" y="50" type="line"/>
			<point x="483" y="292" type="line"/>
			<point x="533" y="287" type="line"/>
			<point x="509" y="0" type="line"/>
			<point x="80" y="0" type="line"/>
			<point x="80" y="50" type="line"/>
			<point x="451" y="540" type="line"/>
			<point x="136" y="540" type="line"/>
		</contour>
	</outline>
</glyph>
<glyph name="florin" format="2">
	<advance width="600"/>
	<unicode hex="0192"/>
	<note>
		florin
	</note>
	<outline>
		<contour>
			<point x="18" y="-30" type="curve" smooth="yes"/>
			<point x="18" y="-113"/>
			<point x="66" y="-172"/>
			<point x="142" y="-172" type="curve" smooth="yes"/>
			<point x="236" y="-172"/>
			<point x="283" y="-59"/>
			<point x="308" y="102" type="curve" smooth="yes"/>
			<point x="334" y="270" type="line"/>
			<point x="453" y="270" type="line"/>
			<point x="453" y="320" type="line"/>
			<point x="342" y="320" type="line"/>
			<point x="364" y="467"/>
			<point x="404" y="553"/>
			<point x="457" y="553" type="curve" smooth="yes"/>
			<point x="515" y="553"/>
			<point x="531" y="505"/>
			<point x="532" y="479" type="curve"/>
			<point x="510" y="497"/>
			<point x="463" y="477"/>
			<point x="463" y="440" type="curve" smooth="yes"/>
			<point x="463" y="407"/>
			<point x="489" y="386"/>
			<point x="522" y="386" type="curve" smooth="yes"/>
			<point x="554" y="386"/>
			<point x="584" y="414"/>
			<point x="584" y="461" type="curve" smooth="yes"/>
			<point x="584" y="544"/>
			<point x="532" y="603"/>
			<point x="458" y="603" type="curve" smooth="yes"/>
			<point x="372" y="603"/>
			<point x="321" y="513"/>
			<point x="291" y="320" type="curve"/>
			<point x="186" y="320" type="line"/>
			<point x="186" y="270" type="line"/>
			<point x="283" y="270" type="line"/>
			<point x="258" y="103" type="line" smooth="yes"/>
			<point x="240" y="-20"/>
			<point x="200" y="-122"/>
			<point x="143" y="-122" type="curve" smooth="yes"/>
			<point x="85" y="-122"/>
			<point x="71" y="-74"/>
			<point x="70" y="-48" type="curve"/>
			<point x="95" y="-66"/>
			<point x="137" y="-45"/>
			<point x="137" y="-9" type="curve" smooth="yes"/>
			<point x="137" y="24"/>
			<point x="113" y="45"/>
			<point x="80" y="45" type="curve" smooth="yes"/>
			<point x="48" y="45"/>
			<point x="18" y="17"/>
		</contour>
	</outline>
</glyph>
<glyph name="caron" format="2">
	<advance width="600"/>
	<unicode hex="02C7"/>
	<note>
		caron
	</note>
	<outline>
		<contour>
			<point x="76" y="563" type="line"/>
			<point x="288" y="472" type="line"/>
			<point x="500" y="563" type="line"/>
			<point x="488" y="591" type="line"/>
			<point x="288" y="526" type="line"/>
			<point x="88" y="591" type="line"/>
		</contour>
	</outline>
</glyph>
<glyph name="breve" format="2">
	<advance width="600"/>
	<unicode hex="02D8"/>
	<note>
		breve
	</note>
	<outline>
		<contour>
			<point x="222" y="590" type="curve"/>
			<point x="174" y="590" type="line"/>
			<point x="174" y="523"/>
			<point x="234" y="469"/>
			<point x="300" y="469" type="curve" smooth="yes"/>
			<point x="367" y="469"/>
			<point x="426" y="523"/>
			<point x="426" y="590" type="curve"/>
			<point x="378" y="590" type="line"/>
			<point x="377" y="549"/>
			<point x="341" y="516"/>
			<point x="300" y="516" type="curve" smooth="yes"/>
			<point x="259" y="516"/>
			<point x="222" y="549"/>
		</contour>
	</outline>
</glyph>
<glyph name="dotaccent" format="2">
	<advance width="600"/>
	<unicode hex="02D9"/>
	<note>
		dotaccent
	</note>
	<outline>
		<contour>
			<point x="245" y="513" type="curve" smooth="yes"/>
			<point x="245" y="485"/>
			<point x="268" y="464"/>
			<point x="294" y="464" type="curve" smooth="yes"/>
			<point x="322" y="464"/>
			<point x="345" y="485"/>
			<point x="345" y="513" type="curve" smooth="yes"/>
			<point x="345" y="541"/>
			<point x="322" y="564"/>
			<point x="294" y="564" type="curve" smooth="yes"/>
			<point x="268" y="564"/>
			<point x="245" y="541"/>
		</contour>
	</outline>
</glyph>
<glyph name="ogonek" format="2">
	<advance width="600"/>
	<unicode hex="02DB"/>
	<note>
		ogonek
	</note>
	<outline>
		<contour>
			<point x="244" y="-71" type="curve" smooth="yes"/>
			<point x="273" y="0" type="line"/>
			<point x="230" y="0" type="line"/>
			<point x="206" y="-62" type="line" smooth="yes"/>
			<point x="196" y="-87"/>
			<point x="191" y="-123"/>
			<point x="219" y="-151" type="curve" smooth="yes"/>
			<point x="247" y="-179"/>
			<point x="284" y="-175"/>
			<point x="309" y="-165" type="curve" smooth="yes"/>
			<point x="377" y="-138" type="line"/>
			<point x="360" y="-98" type="line"/>
			<point x="287" y="-136"/>
			<point x="263" y="-136"/>
			<point x="249" y="-122" type="curve" smooth="yes"/>
			<point x="240" y="-113"/>
			<point x="233" y="-98"/>
		</contour>
	</outline>
</glyph>
<glyph name="tilde" format="2">
	<advance width="600"/>
	<unicode hex="02DC"/>
	<note>
		tilde
	</note>
	<outline>
		<contour>
			<point x="315" y="562" type="curve"/>
			<point x="292" y="581"/>
			<point x="271" y="603"/>
			<point x="232" y="603" type="curve" smooth="yes"/>
			<point x="193" y="603"/>
			<point x="161" y="582"/>
			<point x="111" y="522" type="curve"/>
			<point x="146" y="492" type="line"/>
			<point x="186" y="540"/>
			<point x="210" y="558"/>
			<point x="232" y="558" type="curve" smooth="yes"/>
			<point x="254" y="558"/>
			<point x="268" y="542"/>
			<point x="286" y="526" type="curve"/>
			<point x="309" y="507"/>
			<point x="330" y="485"/>
			<point x="369" y="485" type="curve" smooth="yes"/>
			<point x="408" y="485"/>
			<point x="440" y="506"/>
			<point x="490" y="566" type="curve"/>
			<point x="455" y="596" type="line"/>
			<point x="415" y="548"/>
			<point x="391" y="530"/>
			<point x="369" y="530" type="curve" smooth="yes"/>
			<point x="347" y="530"/>
			<point x="333" y="546"/>
		</contour>
	</outline>
</glyph>
<glyph name="hungarumlaut" format="2">
	<advance width="600"/>
	<unicode hex="02DD"/>
	<note>
		hungarumlaut
	</note>
	<outline>
		<contour>
			<point x="307" y="580" type="line"/>
			<point x="84" y="498" type="line"/>
			<point x="93" y="472" type="line"/>
			<point x="321" y="539" type="line"/>
		</contour>
		<contour>
			<point x="514" y="580" type="line"/>
			<point x="291" y="498" type="line"/>
			<point x="300" y="472" type="line"/>
			<point x="528" y="539" type="line"/>
		</contour>
	</outline>
</glyph>
<glyph name="endash" format="2">
	<advance width="600"/>
	<unicode hex="2013"/>
	<guideline x="241" y="240" angle="0"/>
	<note>
		endash
	</note>
	<outline>
		<contour>
			<point x="485" y="271" type="line"/>
			<point x="125" y="271" type="line"/>
			<point x="125" y="211" type="line"/>
			<point x="485" y="211" type="line"/>
		</contour>
	</outline>
</glyph>
<glyph name="emdash" format="2">
	<advance width="600"/>
	<unicode hex="2014"/>
	<guideline x="241" y="240" angle="0"/>
	<note>
		emdash
	</note>
	<outline>
		<contour>
			<point x="600" y="266" type="line"/>
			<point x="-1" y="266" type="line"/>
			<point x="-1" y="216" type="line"/>
			<point x="600" y="216" type="line"/>
		</contour>
	</outline>
</glyph>
<glyph name="quoteleft" format="2">
	<advance width="600"/>
	<unicode hex="2018"/>
	<note>
		quoteleft
	</note>
	<outline>
		<contour>
			<point x="191" y="446" type="curve" smooth="yes"/>
			<point x="141" y="446"/>
			<point x="112" y="408"/>
			<point x="112" y="367" type="curve" smooth="yes"/>
			<point x="112" y="345"/>
			<point x="119" y="324"/>
			<point x="128" y="314" type="curve"/>
			<point x="108" y="324"/>
			<point x="87" y="353"/>
			<point x="87" y="403" type="curve" smooth="yes"/>
			<point x="87" y="490"/>
			<point x="152" y="544"/>
			<point x="238" y="553" type="curve"/>
			<point x="224" y="602" type="line"/>
			<point x="138" y="593"/>
			<point x="40" y="524"/>
			<point x="40" y="403" type="curve" smooth="yes"/>
			<point x="40" y="303"/>
			<point x="105" y="243"/>
			<point x="176" y="243" type="curve" smooth="yes"/>
			<point x="232" y="243"/>
			<point x="289" y="280"/>
			<point x="289" y="345" type="curve" smooth="yes"/>
			<point x="289" y="403"/>
			<point x="247" y="446"/>
		</contour>
	</outline>
</glyph>
<glyph name="quoteright" format="2">
	<advance width="600"/>
	<unicode hex="2019"/>
	<note>
		quoteright
	</note>
	<outline>
		<contour>
			<point x="138" y="399" type="curve" smooth="yes"/>
			<point x="188" y="399"/>
			<point x="217" y="437"/>
			<point x="217" y="478" type="curve" smooth="yes"/>
			<point x="217" y="500"/>
			<point x="210" y="521"/>
			<point x="201" y="531" type="curve"/>
			<point x="221" y="521"/>
			<point x="242" y="492"/>
			<point x="242" y="442" type="curve" smooth="yes"/>
			<point x="242" y="355"/>
			<point x="177" y="301"/>
			<point x="91" y="292" type="curve"/>
			<point x="105" y="243" type="line"/>
			<point x="191" y="252"/>
			<point x="289" y="321"/>
			<point x="289" y="442" type="curve" smooth="yes"/>
			<point x="289" y="542"/>
			<point x="224" y="602"/>
			<point x="153" y="602" type="curve" smooth="yes"/>
			<point x="97" y="602"/>
			<point x="40" y="565"/>
			<point x="40" y="500" type="curve" smooth="yes"/>
			<point x="40" y="442"/>
			<point x="82" y="399"/>
		</contour>
	</outline>
</glyph>
<glyph name="quotesinglbase" format="2">
	<advance width="600"/>
	<unicode hex="201A"/>
	<note>
		quotesinglbase
	</note>
	<outline>
		<contour>
			<point x="232" y="-13" type="curve" smooth="yes"/>
			<point x="282" y="-13"/>
			<point x="311" y="25"/>
			<point x="311" y="66" type="curve" smooth="yes"/>
			<point x="311" y="88"/>
			<point x="304" y="109"/>
			<point x="295" y="119" type="curve"/>
			<point x="315" y="109"/>
			<point x="336" y="80"/>
			<point x="336" y="30" type="curve" smooth="yes"/>
			<point x="336" y="-57"/>
			<point x="271" y="-111"/>
			<point x="185" y="-120" type="curve"/>
			<point x="199" y="-169" type="line"/>
			<point x="285" y="-160"/>
			<point x="383" y="-91"/>
			<point x="383" y="30" type="curve" smooth="yes"/>
			<point x="383" y="130"/>
			<point x="318" y="190"/>
			<point x="247" y="190" type="curve" smooth="yes"/>
			<point x="191" y="190"/>
			<point x="134" y="153"/>
			<point x="134" y="88" type="curve" smooth="yes"/>
			<point x="134" y="30"/>
			<point x="176" y="-13"/>
		</contour>
	</outline>
</glyph>
<glyph name="bullet" format="2">
	<advance width="600"/>
	<unicode hex="2022"/>
	<note>
		bullet
	</note>
	<outline>
		<contour>
			<point x="295" y="151" type="curve" smooth="yes"/>
			<point x="375" y="151"/>
			<point x="440" y="220"/>
			<point x="440" y="295" type="curve" smooth="yes"/>
			<point x="440" y="375"/>
			<point x="375" y="442"/>
			<point x="295" y="442" type="curve" smooth="yes"/>
			<point x="214" y="442"/>
			<point x="146" y="375"/>
			<point x="146" y="295" type="curve" smooth="yes"/>
			<point x="146" y="220"/>
			<point x="214" y="151"/>
		</contour>
	</outline>
</glyph>
<glyph name="ellipsis" format="2">
	<advance width="600"/>
	<unicode hex="2026"/>
	<note>
		ellipsis
	</note>
	<outline>
		<contour>
			<point x="88" y="-13" type="curve" smooth="yes"/>
			<point x="125" y="-13"/>
			<point x="153" y="18"/>
			<point x="153" y="53" type="curve" smooth="yes"/>
			<point x="153" y="89"/>
			<point x="125" y="120"/>
			<point x="88" y="120" type="curve" smooth="yes"/>
			<point x="51" y="120"/>
			<point x="20" y="89"/>
			<point x="20" y="53" type="curve" smooth="yes"/>
			<point x="20" y="18"/>
			<point x="51" y="-13"/>
		</contour>
		<contour>
			<point x="302" y="-13" type="curve" smooth="yes"/>
			<point x="339" y="-13"/>
			<point x="367" y="18"/>
			<point x="367" y="53" type="curve" smooth="yes"/>
			<point x="367" y="89"/>
			<point x="339" y="120"/>
			<point x="302" y="120" type="curve" smooth="yes"/>
			<point x="265" y="120"/>
			<point x="234" y="89"/>
			<point x="234" y="53" type="curve" smooth="yes"/>
			<point x="234" y="18"/>
			<point x="265" y="-13"/>
		</contour>
		<contour>
			<point x="515" y="-13" type="curve" smooth="yes"/>
			<point x="552" y="-13"/>
			<point x="580" y="18"/>
			<point x="580" y="53" type="curve" smooth="yes"/>
			<point x="580" y="89"/>
			<point x="552" y="120"/>
			<point x="515" y="120" type="curve" smooth="yes"/>
			<point x="478" y="120"/>
			<point x="447" y="89"/>
			<point x="447" y="53" type="curve" smooth="yes"/>
			<point x="447" y="18"/>
			<point x="478" y="-13"/>
		</contour>
	</outline>
</glyph>
<glyph name="guilsinglleft" format="2">
	<advance width="600"/>
	<unicode hex="2039"/>
	<note>
		guilsinglleft
	</note>
	<outline>
		<contour>
			<point x="250" y="255" type="curve"/>
			<point x="316" y="305"/>
			<point x="372" y="356"/>
			<point x="418" y="406" type="curve"/>
			<point x="388" y="444" type="line"/>
			<point x="328" y="381"/>
			<point x="257" y="318"/>
			<point x="177" y="255" type="curve"/>
			<point x="257" y="192"/>
			<point x="328" y="129"/>
			<point x="388" y="66" type="curve"/>
			<point x="418" y="104" type="line"/>
			<point x="372" y="154"/>
			<point x="316" y="205"/>
		</contour>
	</outline>
</glyph>
<glyph name="guilsinglright" format="2">
	<advance width="600"/>
	<unicode hex="203A"/>
	<note>
		guilsinglright
	</note>
	<outline>
		<contour>
			<point x="350" y="255" type="curve"/>
			<point x="284" y="205"/>
			<point x="228" y="154"/>
			<point x="182" y="104" type="curve"/>
			<point x="212" y="66" type="line"/>
			<point x="272" y="129"/>
			<point x="343" y="192"/>
			<point x="423" y="255" type="curve"/>
			<point x="343" y="318"/>
			<point x="272" y="381"/>
			<point x="212" y="444" type="curve"/>
			<point x="182" y="406" type="line"/>
			<point x="228" y="356"/>
			<point x="284" y="305"/>
		</contour>
	</outline>
</glyph>
<glyph name="Euro" format="2">
	<advance width="600"/>
	<unicode hex="20AC"/>
	<note>
		Euro
	</note>
	<outline>
		<contour>
			<point x="145" y="295" type="curve" smooth="yes"/>
			<point x="145" y="309"/>
			<point x="146" y="312"/>
			<point x="148" y="325" type="curve"/>
			<point x="421" y="325" type="line"/>
			<point x="421" y="375" type="line"/>
			<point x="157" y="375" type="line"/>
			<point x="191" y="487"/>
			<point x="263" y="554"/>
			<point x="370" y="553" type="curve" smooth="yes"/>
			<point x="444" y="552"/>
			<point x="533" y="512"/>
			<point x="533" y="457" type="curve"/>
			<point x="510" y="473"/>
			<point x="470" y="447"/>
			<point x="470" y="411" type="curve" smooth="yes"/>
			<point x="470" y="379"/>
			<point x="497" y="355"/>
			<point x="532" y="355" type="curve" smooth="yes"/>
			<point x="562" y="355"/>
			<point x="590" y="387"/>
			<point x="590" y="426" type="curve" smooth="yes"/>
			<point x="590" y="527"/>
			<point x="502" y="603"/>
			<point x="370" y="603" type="curve" smooth="yes"/>
			<point x="232" y="603"/>
			<point x="141" y="515"/>
			<point x="105" y="375" type="curve"/>
			<point x="12" y="375" type="line"/>
			<point x="12" y="325" type="line"/>
			<point x="97" y="325" type="line"/>
			<point x="96" y="312"/>
			<point x="95" y="309"/>
			<point x="95" y="295" type="curve" smooth="yes"/>
			<point x="95" y="281"/>
			<point x="96" y="278"/>
			<point x="97" y="265" type="curve"/>
			<point x="12" y="265" type="line"/>
			<point x="12" y="215" type="line"/>
			<point x="105" y="215" type="line"/>
			<point x="141" y="75"/>
			<point x="232" y="-13"/>
			<point x="370" y="-13" type="curve" smooth="yes"/>
			<point x="502" y="-13"/>
			<point x="590" y="63"/>
			<point x="590" y="164" type="curve" smooth="yes"/>
			<point x="590" y="203"/>
			<point x="562" y="235"/>
			<point x="532" y="235" type="curve" smooth="yes"/>
			<point x="497" y="235"/>
			<point x="470" y="211"/>
			<point x="470" y="179" type="curve" smooth="yes"/>
			<point x="470" y="143"/>
			<point x="510" y="117"/>
			<point x="533" y="133" type="curve"/>
			<point x="533" y="78"/>
			<point x="444" y="38"/>
			<point x="370" y="37" type="curve" smooth="yes"/>
			<point x="263" y="36"/>
			<point x="191" y="103"/>
			<point x="157" y="215" type="curve"/>
			<point x="421" y="215" type="line"/>
			<point x="421" y="265" type="line"/>
			<point x="148" y="265" type="line"/>
			<point x="146" y="278"/>
			<point x="145" y="281"/>
		</contour>
	</outline>
</glyph>
<glyph name="trademark" format="2">
	<advance width="600"/>
	<unicode hex="2122"/>
	<note>
		trademark
	</note>
	<outline>
		<contour>
			<point x="64" y="475" type="line"/>
			<point x="34" y="480" type="line"/>
			<point x="46" y="590" type="line"/>
			<point x="249" y="590" type="line"/>
			<point x="259" y="480" type="line"/>
			<point x="229" y="475" type="line"/>
			<point x="224" y="561" type="line"/>
			<point x="162" y="561" type="line"/>
			<point x="162" y="419" type="line"/>
			<point x="208" y="419" type="line"/>
			<point x="208" y="389" type="line"/>
			<point x="87" y="389" type="line"/>
			<point x="87" y="419" type="line"/>
			<point x="132" y="419" type="line"/>
			<point x="132" y="561" type="line"/>
			<point x="71" y="561" type="line"/>
		</contour>
		<contour>
			<point x="434" y="423" type="line"/>
			<point x="412" y="423" type="line"/>
			<point x="351" y="542" type="line"/>
			<point x="351" y="419" type="line"/>
			<point x="382" y="419" type="line"/>
			<point x="382" y="389" type="line"/>
			<point x="280" y="389" type="line"/>
			<point x="280" y="419" type="line"/>
			<point x="321" y="419" type="line"/>
			<point x="321" y="560" type="line"/>
			<point x="280" y="560" type="line"/>
			<point x="280" y="590" type="line"/>
			<point x="361" y="590" type="line"/>
			<point x="423" y="473" type="line"/>
			<point x="485" y="590" type="line"/>
			<point x="566" y="590" type="line"/>
			<point x="566" y="560" type="line"/>
			<point x="525" y="560" type="line"/>
			<point x="525" y="419" type="line"/>
			<point x="566" y="419" type="line"/>
			<point x="566" y="389" type="line"/>
			<point x="464" y="389" type="line"/>
			<point x="464" y="419" type="line"/>
			<point x="495" y="419" type="line"/>
			<point x="495" y="542" type="line"/>
		</contour>
	</outline>
</glyph>
<glyph name="oneeighth" format="2">
	<advance width="600"/>
	<unicode hex="215B"/>
	<note>
		oneeighth
	</note>
	<outline>
		<contour>
			<point x="189" y="360" type="line"/>
			<point x="189" y="590" type="line"/>
			<point x="146" y="590" type="line"/>
			<point x="117" y="532"/>
			<point x="91" y="500"/>
			<point x="33" y="456" type="curve"/>
			<point x="55" y="431" type="line"/>
			<point x="110" y="469"/>
			<point x="128" y="486"/>
			<point x="152" y="525" type="curve"/>
			<point x="152" y="360" type="line"/>
			<point x="53" y="360" type="line"/>
			<point x="53" y="323" type="line"/>
			<point x="257" y="323" type="line"/>
			<point x="257" y="360" type="line"/>
		</contour>
		<contour>
			<point x="149" y="33" type="line"/>
			<point x="495" y="518" type="line"/>
			<point x="464" y="541" type="line"/>
			<point x="119" y="57" type="line"/>
		</contour>
		<contour>
			<point x="341" y="72" type="curve" smooth="yes"/>
			<point x="341" y="14"/>
			<point x="392" y="-13"/>
			<point x="448" y="-13" type="curve" smooth="yes"/>
			<point x="504" y="-13"/>
			<point x="554" y="14"/>
			<point x="554" y="72" type="curve" smooth="yes"/>
			<point x="554" y="112"/>
			<point x="521" y="136"/>
			<point x="504" y="143" type="curve"/>
			<point x="522" y="150"/>
			<point x="541" y="165"/>
			<point x="541" y="199" type="curve" smooth="yes"/>
			<point x="541" y="237"/>
			<point x="509" y="273"/>
			<point x="449" y="273" type="curve" smooth="yes"/>
			<point x="386" y="273"/>
			<point x="354" y="238"/>
			<point x="354" y="199" type="curve" smooth="yes"/>
			<point x="354" y="165"/>
			<point x="379" y="147"/>
			<point x="393" y="143" type="curve"/>
			<point x="373" y="136"/>
			<point x="341" y="112"/>
		</contour>
		<contour>
			<point x="392" y="199" type="curve" smooth="yes"/>
			<point x="392" y="219"/>
			<point x="412" y="235"/>
			<point x="448" y="235" type="curve" smooth="yes"/>
			<point x="484" y="235"/>
			<point x="503" y="219"/>
			<point x="503" y="199" type="curve" smooth="yes"/>
			<point x="503" y="177"/>
			<point x="484" y="161"/>
			<point x="448" y="161" type="curve" smooth="yes"/>
			<point x="412" y="161"/>
			<point x="392" y="177"/>
		</contour>
		<contour>
			<point x="379" y="72" type="curve" smooth="yes"/>
			<point x="379" y="100"/>
			<point x="409" y="123"/>
			<point x="448" y="123" type="curve" smooth="yes"/>
			<point x="486" y="123"/>
			<point x="517" y="100"/>
			<point x="516" y="72" type="curve" smooth="yes"/>
			<point x="515" y="39"/>
			<point x="486" y="25"/>
			<point x="448" y="25" type="curve" smooth="yes"/>
			<point x="409" y="25"/>
			<point x="379" y="43"/>
		</contour>
	</outline>
</glyph>
<glyph name="threeeighths" format="2">
	<advance width="600"/>
	<unicode hex="215C"/>
	<note>
		threeeighths
	</note>
	<outline>
		<contour>
			<point x="272" y="563" type="line"/>
			<point x="201" y="500" type="line"/>
			<point x="232" y="500"/>
			<point x="280" y="471"/>
			<point x="280" y="413" type="curve" smooth="yes"/>
			<point x="280" y="343"/>
			<point x="215" y="314"/>
			<point x="162" y="314" type="curve" smooth="yes"/>
			<point x="102" y="314"/>
			<point x="48" y="348"/>
			<point x="48" y="393" type="curve" smooth="yes"/>
			<point x="48" y="414"/>
			<point x="61" y="433"/>
			<point x="83" y="433" type="curve" smooth="yes"/>
			<point x="102" y="433"/>
			<point x="114" y="422"/>
			<point x="114" y="405" type="curve" smooth="yes"/>
			<point x="114" y="388"/>
			<point x="97" y="379"/>
			<point x="88" y="383" type="curve"/>
			<point x="95" y="367"/>
			<point x="110" y="352"/>
			<point x="162" y="352" type="curve" smooth="yes"/>
			<point x="197" y="352"/>
			<point x="242" y="367"/>
			<point x="242" y="413" type="curve" smooth="yes"/>
			<point x="242" y="455"/>
			<point x="205" y="473"/>
			<point x="162" y="467" type="curve"/>
			<point x="141" y="449" type="line"/>
			<point x="113" y="472" type="line"/>
			<point x="212" y="552" type="line"/>
			<point x="98" y="552" type="line"/>
			<point x="86" y="498" type="line"/>
			<point x="48" y="503" type="line"/>
			<point x="67" y="590" type="line"/>
			<point x="272" y="590" type="line"/>
		</contour>
		<contour>
			<point x="149" y="33" type="line"/>
			<point x="495" y="518" type="line"/>
			<point x="464" y="541" type="line"/>
			<point x="119" y="57" type="line"/>
		</contour>
		<contour>
			<point x="352" y="72" type="curve" smooth="yes"/>
			<point x="352" y="14"/>
			<point x="403" y="-13"/>
			<point x="459" y="-13" type="curve" smooth="yes"/>
			<point x="515" y="-13"/>
			<point x="565" y="14"/>
			<point x="565" y="72" type="curve" smooth="yes"/>
			<point x="565" y="112"/>
			<point x="532" y="136"/>
			<point x="515" y="143" type="curve"/>
			<point x="533" y="150"/>
			<point x="552" y="165"/>
			<point x="552" y="199" type="curve" smooth="yes"/>
			<point x="552" y="237"/>
			<point x="520" y="273"/>
			<point x="460" y="273" type="curve" smooth="yes"/>
			<point x="397" y="273"/>
			<point x="365" y="238"/>
			<point x="365" y="199" type="curve" smooth="yes"/>
			<point x="365" y="165"/>
			<point x="390" y="147"/>
			<point x="404" y="143" type="curve"/>
			<point x="384" y="136"/>
			<point x="352" y="112"/>
		</contour>
		<contour>
			<point x="403" y="199" type="curve" smooth="yes"/>
			<point x="403" y="219"/>
			<point x="423" y="235"/>
			<point x="459" y="235" type="curve" smooth="yes"/>
			<point x="495" y="235"/>
			<point x="514" y="219"/>
			<point x="514" y="199" type="curve" smooth="yes"/>
			<point x="514" y="177"/>
			<point x="495" y="161"/>
			<point x="459" y="161" type="curve" smooth="yes"/>
			<point x="423" y="161"/>
			<point x="403" y="177"/>
		</contour>
		<contour>
			<point x="390" y="72" type="curve" smooth="yes"/>
			<point x="390" y="100"/>
			<point x="420" y="123"/>
			<point x="459" y="123" type="curve" smooth="yes"/>
			<point x="497" y="123"/>
			<point x="528" y="100"/>
			<point x="527" y="72" type="curve" smooth="yes"/>
			<point x="526" y="39"/>
			<point x="497" y="25"/>
			<point x="459" y="25" type="curve" smooth="yes"/>
			<point x="420" y="25"/>
			<point x="390" y="43"/>
		</contour>
	</outline>
</glyph>
<glyph name="fiveeighths" format="2">
	<advance width="600"/>
	<unicode hex="215D"/>
	<note>
		fiveeighths
	</note>
	<outline>
		<contour>
			<point x="232" y="412" type="curve" smooth="yes"/>
			<point x="232" y="454"/>
			<point x="196" y="473"/>
			<point x="169" y="473" type="curve" smooth="yes"/>
			<point x="141" y="473"/>
			<point x="118" y="463"/>
			<point x="99" y="452" type="curve"/>
			<point x="67" y="468" type="line"/>
			<point x="78" y="590" type="line"/>
			<point x="251" y="590" type="line"/>
			<point x="251" y="552" type="line"/>
			<point x="111" y="552" type="line"/>
			<point x="105" y="494" type="line"/>
			<point x="116" y="505"/>
			<point x="143" y="511"/>
			<point x="170" y="511" type="curve" smooth="yes"/>
			<point x="225" y="511"/>
			<point x="270" y="470"/>
			<point x="270" y="412" type="curve" smooth="yes"/>
			<point x="270" y="353"/>
			<point x="213" y="316"/>
			<point x="161" y="316" type="curve" smooth="yes"/>
			<point x="105" y="316"/>
			<point x="55" y="345"/>
			<point x="55" y="389" type="curve" smooth="yes"/>
			<point x="55" y="411"/>
			<point x="68" y="428"/>
			<point x="86" y="428" type="curve" smooth="yes"/>
			<point x="103" y="428"/>
			<point x="116" y="419"/>
			<point x="116" y="402" type="curve" smooth="yes"/>
			<point x="116" y="385"/>
			<point x="104" y="377"/>
			<point x="93" y="379" type="curve"/>
			<point x="96" y="371"/>
			<point x="114" y="354"/>
			<point x="161" y="354" type="curve" smooth="yes"/>
			<point x="191" y="354"/>
			<point x="232" y="372"/>
		</contour>
		<contour>
			<point x="149" y="33" type="line"/>
			<point x="495" y="518" type="line"/>
			<point x="464" y="541" type="line"/>
			<point x="119" y="57" type="line"/>
		</contour>
		<contour>
			<point x="352" y="72" type="curve" smooth="yes"/>
			<point x="352" y="14"/>
			<point x="403" y="-13"/>
			<point x="459" y="-13" type="curve" smooth="yes"/>
			<point x="515" y="-13"/>
			<point x="565" y="14"/>
			<point x="565" y="72" type="curve" smooth="yes"/>
			<point x="565" y="112"/>
			<point x="532" y="136"/>
			<point x="515" y="143" type="curve"/>
			<point x="533" y="150"/>
			<point x="552" y="165"/>
			<point x="552" y="199" type="curve" smooth="yes"/>
			<point x="552" y="237"/>
			<point x="520" y="273"/>
			<point x="460" y="273" type="curve" smooth="yes"/>
			<point x="397" y="273"/>
			<point x="365" y="238"/>
			<point x="365" y="199" type="curve" smooth="yes"/>
			<point x="365" y="165"/>
			<point x="390" y="147"/>
			<point x="404" y="143" type="curve"/>
			<point x="384" y="136"/>
			<point x="352" y="112"/>
		</contour>
		<contour>
			<point x="403" y="199" type="curve" smooth="yes"/>
			<point x="403" y="219"/>
			<point x="423" y="235"/>
			<point x="459" y="235" type="curve" smooth="yes"/>
			<point x="495" y="235"/>
			<point x="514" y="219"/>
			<point x="514" y="199" type="curve" smooth="yes"/>
			<point x="514" y="177"/>
			<point x="495" y="161"/>
			<point x="459" y="161" type="curve" smooth="yes"/>
			<point x="423" y="161"/>
			<point x="403" y="177"/>
		</contour>
		<contour>
			<point x="390" y="72" type="curve" smooth="yes"/>
			<point x="390" y="100"/>
			<point x="420" y="123"/>
			<point x="459" y="123" type="curve" smooth="yes"/>
			<point x="497" y="123"/>
			<point x="528" y="100"/>
			<point x="527" y="72" type="curve" smooth="yes"/>
			<point x="526" y="39"/>
			<point x="497" y="25"/>
			<point x="459" y="25" type="curve" smooth="yes"/>
			<point x="420" y="25"/>
			<point x="390" y="43"/>
		</contour>
	</outline>
</glyph>
<glyph name="arrowup" format="2">
	<advance width="600"/>
	<unicode hex="2191"/>
	<note>
		arrowup
	</note>
	<outline>
		<contour>
			<point x="110" y="367" type="curve"/>
			<point x="138" y="332" type="line"/>
			<point x="205" y="367"/>
			<point x="244" y="414"/>
			<point x="274" y="467" type="curve"/>
			<point x="274" y="0" type="line"/>
			<point x="324" y="0" type="line"/>
			<point x="324" y="467" type="line"/>
			<point x="354" y="414"/>
			<point x="393" y="367"/>
			<point x="460" y="332" type="curve"/>
			<point x="488" y="367" type="line"/>
			<point x="401" y="414"/>
			<point x="345" y="505"/>
			<point x="317" y="572" type="curve"/>
			<point x="281" y="572" type="line"/>
			<point x="253" y="505"/>
			<point x="197" y="414"/>
		</contour>
	</outline>
</glyph>
<glyph name="arrowright" format="2">
	<advance width="600"/>
	<unicode hex="2192"/>
	<note>
		arrowright
	</note>
	<outline>
		<contour>
			<point x="381" y="402" type="curve"/>
			<point x="346" y="374" type="line"/>
			<point x="381" y="308"/>
			<point x="428" y="269"/>
			<point x="481" y="239" type="curve"/>
			<point x="14" y="238" type="line"/>
			<point x="14" y="188" type="line"/>
			<point x="481" y="189" type="line"/>
			<point x="428" y="158"/>
			<point x="381" y="119"/>
			<point x="346" y="53" type="curve"/>
			<point x="381" y="24" type="line"/>
			<point x="428" y="112"/>
			<point x="519" y="168"/>
			<point x="586" y="196" type="curve"/>
			<point x="586" y="232" type="line"/>
			<point x="519" y="260"/>
			<point x="428" y="316"/>
		</contour>
	</outline>
</glyph>
<glyph name="uni2196" format="2">
	<advance width="600"/>
	<unicode hex="2196"/>
	<note>
		uni2196
	</note>
	<outline>
		<contour>
			<point x="381" y="359" type="curve"/>
			<point x="376" y="404" type="line"/>
			<point x="282" y="376"/>
			<point x="178" y="401"/>
			<point x="111" y="429" type="curve"/>
			<point x="86" y="403" type="line"/>
			<point x="113" y="336"/>
			<point x="138" y="232"/>
			<point x="109" y="137" type="curve"/>
			<point x="154" y="132" type="line"/>
			<point x="176" y="204"/>
			<point x="171" y="265"/>
			<point x="155" y="324" type="curve"/>
			<point x="485" y="-7" type="line"/>
			<point x="520" y="28" type="line"/>
			<point x="190" y="359" type="line"/>
			<point x="249" y="343"/>
			<point x="310" y="337"/>
		</contour>
	</outline>
</glyph>
<glyph name="uni2197" format="2">
	<advance width="600"/>
	<unicode hex="2197"/>
	<note>
		uni2197
	</note>
	<outline>
		<contour>
			<point x="448" y="133" type="curve"/>
			<point x="493" y="138" type="line"/>
			<point x="465" y="232"/>
			<point x="490" y="336"/>
			<point x="518" y="403" type="curve"/>
			<point x="492" y="428" type="line"/>
			<point x="425" y="401"/>
			<point x="321" y="376"/>
			<point x="226" y="405" type="curve"/>
			<point x="221" y="360" type="line"/>
			<point x="293" y="338"/>
			<point x="354" y="343"/>
			<point x="413" y="359" type="curve"/>
			<point x="82" y="29" type="line"/>
			<point x="117" y="-6" type="line"/>
			<point x="448" y="324" type="line"/>
			<point x="432" y="265"/>
			<point x="426" y="204"/>
		</contour>
	</outline>
</glyph>
<glyph name="uni2198" format="2">
	<advance width="600"/>
	<unicode hex="2198"/>
	<note>
		uni2198
	</note>
	<outline>
		<contour>
			<point x="223" y="66" type="curve"/>
			<point x="228" y="21" type="line"/>
			<point x="322" y="49"/>
			<point x="426" y="24"/>
			<point x="493" y="-4" type="curve"/>
			<point x="518" y="22" type="line"/>
			<point x="491" y="89"/>
			<point x="466" y="193"/>
			<point x="495" y="288" type="curve"/>
			<point x="450" y="293" type="line"/>
			<point x="428" y="221"/>
			<point x="433" y="160"/>
			<point x="449" y="101" type="curve"/>
			<point x="119" y="432" type="line"/>
			<point x="84" y="397" type="line"/>
			<point x="414" y="66" type="line"/>
			<point x="355" y="82"/>
			<point x="294" y="88"/>
		</contour>
	</outline>
</glyph>
<glyph name="product" format="2">
	<advance width="600"/>
	<unicode hex="220F"/>
	<note>
		product
	</note>
	<outline>
		<contour>
			<point x="520" y="540" type="line"/>
			<point x="520" y="590" type="line"/>
			<point x="70" y="590" type="line"/>
			<point x="70" y="540" type="line"/>
			<point x="143" y="540" type="line"/>
			<point x="143" y="-160" type="line"/>
			<point x="193" y="-160" type="line"/>
			<point x="193" y="540" type="line"/>
			<point x="397" y="540" type="line"/>
			<point x="397" y="-160" type="line"/>
			<point x="447" y="-160" type="line"/>
			<point x="447" y="540" type="line"/>
		</contour>
	</outline>
</glyph>
<glyph name="summation" format="2">
	<advance width="600"/>
	<unicode hex="2211"/>
	<note>
		summation
	</note>
	<outline>
		<contour>
			<point x="79" y="540" type="line"/>
			<point x="286" y="215" type="line"/>
			<point x="79" y="-110" type="line"/>
			<point x="79" y="-160" type="line"/>
			<point x="542" y="-160" type="line"/>
			<point x="542" y="-110" type="line"/>
			<point x="139" y="-110" type="line"/>
			<point x="344" y="215" type="line"/>
			<point x="139" y="540" type="line"/>
			<point x="542" y="540" type="line"/>
			<point x="542" y="590" type="line"/>
			<point x="79" y="590" type="line"/>
		</contour>
	</outline>
</glyph>
<glyph name="radical" format="2">
	<advance width="600"/>
	<unicode hex="221A"/>
	<note>
		radical
	</note>
	<outline>
		<contour>
			<point x="590" y="587" type="line"/>
			<point x="539" y="603" type="line"/>
			<point x="369" y="-117" type="line"/>
			<point x="280" y="262" type="line"/>
			<point x="120" y="205" type="line"/>
			<point x="136" y="160" type="line"/>
			<point x="241" y="198" type="line"/>
			<point x="330" y="-160" type="line"/>
			<point x="411" y="-160" type="line"/>
		</contour>
	</outline>
</glyph>
<glyph name="integral" format="2">
	<advance width="600"/>
	<unicode hex="222B"/>
	<note>
		integral
	</note>
	<outline>
		<contour>
			<point x="79" y="-41" type="curve" smooth="yes"/>
			<point x="79" y="-124"/>
			<point x="114" y="-173"/>
			<point x="182" y="-173" type="curve" smooth="yes"/>
			<point x="266" y="-173"/>
			<point x="299" y="-62"/>
			<point x="308" y="101" type="curve" smooth="yes"/>
			<point x="319" y="303" type="line"/>
			<point x="320" y="328" type="line" smooth="yes"/>
			<point x="327" y="452"/>
			<point x="347" y="553"/>
			<point x="394" y="553" type="curve" smooth="yes"/>
			<point x="440" y="553"/>
			<point x="446" y="515"/>
			<point x="447" y="489" type="curve"/>
			<point x="422" y="507"/>
			<point x="380" y="486"/>
			<point x="380" y="450" type="curve" smooth="yes"/>
			<point x="380" y="417"/>
			<point x="404" y="396"/>
			<point x="437" y="396" type="curve" smooth="yes"/>
			<point x="469" y="396"/>
			<point x="498" y="424"/>
			<point x="498" y="471" type="curve" smooth="yes"/>
			<point x="498" y="554"/>
			<point x="463" y="603"/>
			<point x="395" y="603" type="curve" smooth="yes"/>
			<point x="311" y="603"/>
			<point x="278" y="492"/>
			<point x="269" y="329" type="curve" smooth="yes"/>
			<point x="258" y="127" type="line"/>
			<point x="257" y="102" type="line" smooth="yes"/>
			<point x="252" y="-22"/>
			<point x="230" y="-123"/>
			<point x="183" y="-123" type="curve" smooth="yes"/>
			<point x="137" y="-123"/>
			<point x="131" y="-85"/>
			<point x="130" y="-59" type="curve"/>
			<point x="155" y="-77"/>
			<point x="197" y="-56"/>
			<point x="197" y="-20" type="curve" smooth="yes"/>
			<point x="197" y="13"/>
			<point x="173" y="34"/>
			<point x="140" y="34" type="curve" smooth="yes"/>
			<point x="108" y="34"/>
			<point x="79" y="6"/>
		</contour>
	</outline>
</glyph>
<glyph name="notequal" format="2">
	<advance width="600"/>
	<unicode hex="2260"/>
	<note>
		notequal
	</note>
	<outline>
		<contour>
			<point x="350" y="282" type="line"/>
			<point x="531" y="282" type="line"/>
			<point x="531" y="332" type="line"/>
			<point x="368" y="332" type="line"/>
			<point x="397" y="414" type="line"/>
			<point x="350" y="430" type="line"/>
			<point x="315" y="332" type="line"/>
			<point x="70" y="332" type="line"/>
			<point x="70" y="282" type="line"/>
			<point x="297" y="282" type="line"/>
			<point x="249" y="148" type="line"/>
			<point x="70" y="148" type="line"/>
			<point x="70" y="98" type="line"/>
			<point x="231" y="98" type="line"/>
			<point x="195" y="-4" type="line"/>
			<point x="242" y="-20" type="line"/>
			<point x="284" y="98" type="line"/>
			<point x="531" y="98" type="line"/>
			<point x="531" y="148" type="line"/>
			<point x="302" y="148" type="line"/>
		</contour>
	</outline>
</glyph>
<glyph name="ff" format="2">
	<advance width="600"/>
	<unicode hex="FB00"/>
	<note>
		ff
	</note>
	<outline>
		<contour>
			<point x="438" y="603" type="curve" smooth="yes"/>
			<point x="398" y="603"/>
			<point x="366" y="588"/>
			<point x="342" y="564" type="curve"/>
			<point x="316" y="588"/>
			<point x="285" y="603"/>
			<point x="248" y="603" type="curve" smooth="yes"/>
			<point x="156" y="603"/>
			<point x="88" y="523"/>
			<point x="77" y="430" type="curve"/>
			<point x="22" y="430" type="line"/>
			<point x="22" y="379" type="line"/>
			<point x="75" y="379" type="line"/>
			<point x="75" y="50" type="line"/>
			<point x="22" y="50" type="line"/>
			<point x="22" y="0" type="line"/>
			<point x="189" y="0" type="line"/>
			<point x="189" y="50" type="line"/>
			<point x="126" y="50" type="line"/>
			<point x="126" y="379" type="line"/>
			<point x="189" y="379" type="line"/>
			<point x="189" y="430" type="line"/>
			<point x="128" y="430" type="line"/>
			<point x="137" y="495"/>
			<point x="175" y="557"/>
			<point x="247" y="557" type="curve" smooth="yes"/>
			<point x="279" y="557"/>
			<point x="298" y="542"/>
			<point x="313" y="524" type="curve"/>
			<point x="298" y="497"/>
			<point x="289" y="464"/>
			<point x="286" y="430" type="curve"/>
			<point x="232" y="430" type="line"/>
			<point x="232" y="379" type="line"/>
			<point x="285" y="379" type="line"/>
			<point x="285" y="50" type="line"/>
			<point x="232" y="50" type="line"/>
			<point x="232" y="0" type="line"/>
			<point x="399" y="0" type="line"/>
			<point x="399" y="50" type="line"/>
			<point x="336" y="50" type="line"/>
			<point x="336" y="379" type="line"/>
			<point x="419" y="379" type="line"/>
			<point x="419" y="430" type="line"/>
			<point x="337" y="430" type="line"/>
			<point x="342" y="495"/>
			<point x="365" y="557"/>
			<point x="437" y="557" type="curve" smooth="yes"/>
			<point x="497" y="557"/>
			<point x="531" y="503"/>
			<point x="532" y="479" type="curve"/>
			<point x="504" y="500"/>
			<point x="463" y="471"/>
			<point x="463" y="438" type="curve" smooth="yes"/>
			<point x="463" y="405"/>
			<point x="489" y="386"/>
			<point x="522" y="386" type="curve" smooth="yes"/>
			<point x="554" y="386"/>
			<point x="580" y="414"/>
			<point x="580" y="461" type="curve" smooth="yes"/>
			<point x="580" y="542"/>
			<point x="513" y="603"/>
		</contour>
	</outline>
</glyph>
<glyph name="Femme" format="2">
	<advance width="600"/>
	<note>
		Femme
	</note>
	<outline>
		<contour>
			<point x="325" y="80" type="line"/>
			<point x="325" y="147" type="line"/>
			<point x="444" y="159"/>
			<point x="538" y="256"/>
			<point x="538" y="374" type="curve" smooth="yes"/>
			<point x="538" y="500"/>
			<point x="431" y="602"/>
			<point x="301" y="602" type="curve" smooth="yes"/>
			<point x="170" y="602"/>
			<point x="63" y="500"/>
			<point x="63" y="374" type="curve" smooth="yes"/>
			<point x="63" y="256"/>
			<point x="156" y="160"/>
			<point x="275" y="147" type="curve"/>
			<point x="275" y="80" type="line"/>
			<point x="85" y="80" type="line"/>
			<point x="85" y="30" type="line"/>
			<point x="275" y="30" type="line"/>
			<point x="275" y="-160" type="line"/>
			<point x="325" y="-160" type="line"/>
			<point x="325" y="30" type="line"/>
			<point x="515" y="30" type="line"/>
			<point x="515" y="80" type="line"/>
		</contour>
		<contour>
			<point x="113" y="374" type="curve" smooth="yes"/>
			<point x="113" y="472"/>
			<point x="197" y="553"/>
			<point x="300" y="552" type="curve" smooth="yes"/>
			<point x="403" y="551"/>
			<point x="489" y="472"/>
			<point x="488" y="374" type="curve" smooth="yes"/>
			<point x="487" y="276"/>
			<point x="403" y="196"/>
			<point x="300" y="196" type="curve" smooth="yes"/>
			<point x="197" y="196"/>
			<point x="113" y="276"/>
		</contour>
	</outline>
</glyph>
<glyph name="Homme" format="2">
	<advance width="600"/>
	<note>
		Homme
	</note>
	<outline>
		<contour>
			<point x="595" y="556" type="curve"/>
			<point x="570" y="581" type="line"/>
			<point x="503" y="553"/>
			<point x="399" y="529"/>
			<point x="304" y="557" type="curve"/>
			<point x="299" y="512" type="line"/>
			<point x="371" y="490"/>
			<point x="432" y="495"/>
			<point x="491" y="512" type="curve"/>
			<point x="386" y="406" type="line"/>
			<point x="346" y="436"/>
			<point x="297" y="453"/>
			<point x="243" y="453" type="curve" smooth="yes"/>
			<point x="112" y="453"/>
			<point x="5" y="351"/>
			<point x="5" y="225" type="curve" smooth="yes"/>
			<point x="5" y="99"/>
			<point x="112" y="-3"/>
			<point x="243" y="-3" type="curve" smooth="yes"/>
			<point x="373" y="-3"/>
			<point x="480" y="99"/>
			<point x="480" y="225" type="curve" smooth="yes"/>
			<point x="480" y="281"/>
			<point x="459" y="333"/>
			<point x="423" y="373" type="curve"/>
			<point x="526" y="476" type="line"/>
			<point x="510" y="418"/>
			<point x="504" y="357"/>
			<point x="527" y="285" type="curve"/>
			<point x="571" y="290" type="line"/>
			<point x="543" y="384"/>
			<point x="568" y="488"/>
		</contour>
		<contour>
			<point x="430" y="225" type="curve" smooth="yes"/>
			<point x="429" y="127"/>
			<point x="345" y="47"/>
			<point x="242" y="47" type="curve" smooth="yes"/>
			<point x="139" y="47"/>
			<point x="55" y="127"/>
			<point x="55" y="225" type="curve" smooth="yes"/>
			<point x="55" y="323"/>
			<point x="139" y="404"/>
			<point x="242" y="403" type="curve" smooth="yes"/>
			<point x="345" y="402"/>
			<point x="431" y="323"/>
		</contour>
	</outline>
</glyph>
<glyph name="I.duo" format="2">
	<advance width="300"/>
	<note>
		I.duo
	</note>
	<outline>
		<contour>
			<point x="176" y="50" type="line"/>
			<point x="176" y="540" type="line"/>
			<point x="262" y="540" type="line"/>
			<point x="262" y="590" type="line"/>
			<point x="38" y="590" type="line"/>
			<point x="38" y="540" type="line"/>
			<point x="126" y="540" type="line"/>
			<point x="126" y="50" type="line"/>
			<point x="38" y="50" type="line"/>
			<point x="38" y="0" type="line"/>
			<point x="262" y="0" type="line"/>
			<point x="262" y="50" type="line"/>
		</contour>
	</outline>
</glyph>
<glyph name="LeftRightArrow" format="2">
	<advance width="600"/>
	<note>
		LeftRightArrow
	</note>
	<outline>
		<contour>
			<point x="4" y="232" type="curve"/>
			<point x="4" y="196" type="line"/>
			<point x="71" y="168"/>
			<point x="162" y="112"/>
			<point x="209" y="24" type="curve"/>
			<point x="244" y="53" type="line"/>
			<point x="209" y="119"/>
			<point x="162" y="158"/>
			<point x="109" y="188" type="curve"/>
			<point x="491" y="188" type="line"/>
			<point x="438" y="158"/>
			<point x="391" y="119"/>
			<point x="356" y="53" type="curve"/>
			<point x="391" y="24" type="line"/>
			<point x="438" y="112"/>
			<point x="529" y="168"/>
			<point x="596" y="196" type="curve"/>
			<point x="596" y="232" type="line"/>
			<point x="529" y="260"/>
			<point x="438" y="316"/>
			<point x="391" y="402" type="curve"/>
			<point x="356" y="374" type="line"/>
			<point x="391" y="308"/>
			<point x="438" y="269"/>
			<point x="491" y="239" type="curve"/>
			<point x="109" y="239" type="line"/>
			<point x="162" y="269"/>
			<point x="209" y="308"/>
			<point x="244" y="374" type="curve"/>
			<point x="209" y="402" type="line"/>
			<point x="162" y="316"/>
			<point x="71" y="260"/>
		</contour>
	</outline>
</glyph>
<glyph name="M.Mme" format="2">
	<advance width="600"/>
	<note>
		M.Mme
	</note>
	<outline>
		<contour>
			<point x="589" y="79" type="curve"/>
			<point x="550" y="106" type="line"/>
			<point x="520" y="58"/>
			<point x="501" y="36"/>
			<point x="484" y="36" type="curve" smooth="yes"/>
			<point x="469" y="36"/>
			<point x="467" y="50"/>
			<point x="470" y="72" type="curve" smooth="yes"/>
			<point x="547" y="590" type="line"/>
			<point x="497" y="590" type="line"/>
			<point x="343" y="203" type="line"/>
			<point x="400" y="590" type="line"/>
			<point x="350" y="590" type="line"/>
			<point x="227" y="284" type="line" smooth="yes"/>
			<point x="147" y="86"/>
			<point x="144" y="37"/>
			<point x="96" y="37" type="curve" smooth="yes"/>
			<point x="53" y="37"/>
			<point x="44" y="74"/>
			<point x="48" y="101" type="curve"/>
			<point x="54" y="89"/>
			<point x="69" y="77"/>
			<point x="90" y="77" type="curve" smooth="yes"/>
			<point x="112" y="77"/>
			<point x="140" y="94"/>
			<point x="141" y="126" type="curve" smooth="yes"/>
			<point x="142" y="156"/>
			<point x="118" y="181"/>
			<point x="83" y="181" type="curve" smooth="yes"/>
			<point x="38" y="181"/>
			<point x="-1" y="142"/>
			<point x="-1" y="84" type="curve" smooth="yes"/>
			<point x="-1" y="32"/>
			<point x="40" y="-13"/>
			<point x="93" y="-13" type="curve" smooth="yes"/>
			<point x="175" y="-13"/>
			<point x="183" y="40"/>
			<point x="275" y="273" type="curve" smooth="yes"/>
			<point x="320" y="386" type="line"/>
			<point x="262" y="0" type="line"/>
			<point x="313" y="0" type="line"/>
			<point x="466" y="386" type="line"/>
			<point x="419" y="75" type="line" smooth="yes"/>
			<point x="410" y="15"/>
			<point x="441" y="-13"/>
			<point x="479" y="-13" type="curve" smooth="yes"/>
			<point x="523" y="-13"/>
			<point x="550" y="15"/>
		</contour>
	</outline>
</glyph>
<glyph name="OE.duo" format="2">
	<advance width="900"/>
	<note>
		OE.duo
	</note>
	<outline>
		<contour>
			<point x="829" y="222" type="line"/>
			<point x="815" y="50" type="line"/>
			<point x="522" y="50" type="line"/>
			<point x="522" y="268" type="line"/>
			<point x="680" y="268" type="line"/>
			<point x="680" y="162" type="line"/>
			<point x="730" y="162" type="line"/>
			<point x="730" y="427" type="line"/>
			<point x="680" y="427" type="line"/>
			<point x="680" y="318" type="line"/>
			<point x="522" y="318" type="line"/>
			<point x="522" y="540" type="line"/>
			<point x="815" y="540" type="line"/>
			<point x="829" y="368" type="line"/>
			<point x="878" y="373" type="line"/>
			<point x="858" y="590" type="line"/>
			<point x="472" y="590" type="line"/>
			<point x="472" y="465" type="line"/>
			<point x="447" y="548"/>
			<point x="366" y="603"/>
			<point x="265" y="603" type="curve" smooth="yes"/>
			<point x="119" y="603"/>
			<point x="7" y="481"/>
			<point x="7" y="295" type="curve" smooth="yes"/>
			<point x="7" y="109"/>
			<point x="119" y="-13"/>
			<point x="265" y="-13" type="curve" smooth="yes"/>
			<point x="366" y="-13"/>
			<point x="447" y="35"/>
			<point x="472" y="115" type="curve"/>
			<point x="472" y="0" type="line"/>
			<point x="858" y="0" type="line"/>
			<point x="878" y="217" type="line"/>
		</contour>
		<contour>
			<point x="265" y="37" type="curve" smooth="yes"/>
			<point x="150" y="36"/>
			<point x="57" y="137"/>
			<point x="57" y="295" type="curve" smooth="yes"/>
			<point x="57" y="453"/>
			<point x="150" y="554"/>
			<point x="265" y="553" type="curve" smooth="yes"/>
			<point x="388" y="552"/>
			<point x="472" y="448"/>
			<point x="472" y="290" type="curve" smooth="yes"/>
			<point x="472" y="132"/>
			<point x="388" y="38"/>
		</contour>
	</outline>
</glyph>
